<svg width="24" height="24" viewBox="0 0 24 24" fill="none" xmlns="http://www.w3.org/2000/svg">
    <path d="M7 20.8096C6.53293 20.7762 6.05395 20.7385 5.55983 20.6963C4.36458 20.5944 3.41962 19.6392 3.32198 18.4433C3.0503 15.1156 2.92651 12.4655 3.02943 9.52504C3.05239 8.86913 3.3451 8.25314 3.82907 7.80983L8.33313 3.6841C8.76405 3.28938 9.31962 3.05625 9.90366 3.03627C12.7002 2.94062 15.2644 3.03161 18.4748 3.30957C19.6544 3.4117 20.593 4.34554 20.6974 5.52528C21.1187 10.2868 21.0798 13.6488 20.6825 18.4503C20.5838 19.6432 19.6388 20.5933 18.4464 20.6944C17.9498 20.7365 17.4687 20.7742 17 20.8076M7 20.8096L7.31745 16.8057C7.42052 15.5057 8.50555 14.5033 9.80963 14.5033H14.1904C15.4945 14.5033 16.5795 15.5057 16.6826 16.8056L17 20.8076M7 20.8096C10.5494 21.0631 13.4107 21.0632 17 20.8076" stroke="currentColor" stroke-width="1.5"/>
    <path d="M12 7H16" stroke="currentColor" stroke-width="1.5" stroke-linecap="round"/>
</svg>
