<svg width="18" height="18" viewBox="0 0 18 18" fill="none" xmlns="http://www.w3.org/2000/svg">
<path d="M0.953534 5.61072L7.4175 0.546889C8.3483 -0.182297 9.6517 -0.182297 10.5825 0.546889L17.0465 5.61072C17.7843 6.18877 17.9893 7.04912 17.9996 8.04354C18.0001 8.09745 17.9984 8.14955 17.9943 8.2033C17.9525 8.75484 17.6634 12.1249 16.5949 15.9084C16.2173 16.9615 15.3289 18 14.1067 18H12.918C12.1777 18 11.4713 17.3956 11.4713 16.65L11.5776 13.846C11.5776 12.4122 10.4236 11.2498 9 11.2498C7.57642 11.2498 6.42239 12.4122 6.42239 13.846L6.54168 16.65C6.54168 17.3956 5.82229 18 5.08203 18H3.89335C2.6711 18 1.78269 16.9615 1.40511 15.9084C0.336629 12.1249 0.0474978 8.75483 0.00567902 8.2033C0.00160308 8.14954 -0.000144052 8.09745 0.000412642 8.04354C0.0106818 7.04913 0.215656 6.18877 0.953534 5.61072Z" fill="currentColor"/>
</svg>
