<svg width="24" height="24" viewBox="0 0 24 24" fill="none" xmlns="http://www.w3.org/2000/svg">
    <path d="M5.49315 3.31773C4.32694 3.41993 3.39176 4.35233 3.27491 5.54353C2.90743 9.28991 2.90852 12.0187 3.27726 15.7511C3.39347 16.9274 4.30826 17.8532 5.45855 17.9699C6.51346 18.0769 7.49836 18.1608 8.44273 18.2217C9.40349 18.2836 10.2897 18.7865 10.8237 19.6058L11.584 20.7723C11.7819 21.0759 12.2181 21.0759 12.416 20.7723L13.1736 19.61C13.7082 18.7899 14.5957 18.287 15.5575 18.2252C16.5049 18.1645 17.4899 18.0799 18.5434 17.9717C19.6883 17.8541 20.5993 16.9343 20.718 15.7637C21.0978 12.019 21.0904 9.28723 20.7174 5.54008C20.599 4.3505 19.6651 3.41953 18.5003 3.31705C13.6832 2.89322 10.3143 2.89519 5.49315 3.31773Z" stroke="currentColor" stroke-width="1.5"/>
    <path d="M8 9L16 9" stroke="currentColor" stroke-width="1.5" stroke-linecap="round"/>
    <path d="M8 12.5H14" stroke="currentColor" stroke-width="1.5" stroke-linecap="round"/>
</svg>
