
<svg width="22" height="22" viewBox="0 0 22 22" fill="none" xmlns="http://www.w3.org/2000/svg">
<path fill-rule="evenodd" clip-rule="evenodd" d="M19.9875 7.57807C20.1978 7.47343 20.4421 7.48386 20.6423 7.60735C20.8425 7.73083 20.9616 7.94484 20.9616 8.1797V9.10974C20.9616 9.3446 20.8425 9.5586 20.6423 9.68243C20.5336 9.74939 20.4115 9.78337 20.289 9.78337C20.1864 9.78337 20.0834 9.75948 19.9875 9.7117L18.9427 9.18915V13.3824C20.0824 13.5466 20.9616 14.5268 20.9616 15.7108V19.0757C20.9616 19.2614 20.8109 19.4121 20.6252 19.4121H20.2887C20.2887 20.3398 19.5339 21.0945 18.6063 21.0945C17.6786 21.0945 16.9239 20.3398 16.9239 19.4121H13.559H10.8672H8.51181C8.51181 20.3398 7.75709 21.0945 6.82941 21.0945C5.90173 21.0945 5.147 20.3398 5.147 19.4121H4.13755H2.79163C2.60589 19.4121 2.45514 19.2614 2.45514 19.0757V17.7297C2.45514 16.8623 2.71188 16.0551 3.14931 15.3744H1.10922C0.923479 15.3744 0.772736 15.2236 0.772736 15.0379V13.6919C0.772736 13.5062 0.923479 13.3555 1.10922 13.3555H1.4457V8.30824C1.4457 8.1225 1.59644 7.97176 1.78218 7.97176H4.13755H5.48348H7.83885C8.02459 7.97176 8.17533 8.1225 8.17533 8.30824V13.3555H9.36648C9.04547 12.9978 8.8483 12.527 8.8483 12.0095V8.30824C8.8483 7.72646 9.06768 7.16655 9.45127 6.73821C9.09965 6.48989 8.81431 6.17158 8.60031 5.81053L8.58853 5.79068C8.54042 5.70824 8.49634 5.62345 8.4563 5.53664C8.44889 5.52049 8.44183 5.50433 8.43476 5.48818C8.39977 5.40877 8.36746 5.32836 8.33954 5.24558C8.33238 5.22483 8.32607 5.20374 8.31977 5.18268L8.31194 5.15675C8.28974 5.08407 8.2682 5.01173 8.25171 4.93736C8.24358 4.90122 8.23748 4.86473 8.23137 4.82814L8.23137 4.82813L8.22379 4.78359C8.22112 4.76808 8.21831 4.75261 8.2155 4.73715L8.21549 4.73712L8.21549 4.7371L8.21548 4.73707L8.21548 4.73705L8.21548 4.73703C8.20799 4.69586 8.2005 4.6547 8.19586 4.61266L8.19485 4.60694H8.17533C7.98959 4.60694 7.83885 4.45619 7.83885 4.27046C7.83885 2.4151 9.34831 0.90564 11.2037 0.90564C12.9456 0.90564 14.3821 2.23609 14.5513 3.93397H15.9144V4.60694H14.232H14.2118C14.1169 5.469 13.6623 6.23955 12.9564 6.73788C13.1876 6.99562 13.3588 7.30081 13.4578 7.63527H16.5874C16.6241 7.63527 16.6577 7.64537 16.6907 7.65614C16.9303 7.43641 17.2469 7.29879 17.5968 7.29879C18.1635 7.29879 18.6473 7.6521 18.8452 8.14908L19.9875 7.57807ZM11.8419 14.0285C13.0731 14.803 13.8955 16.1705 13.8955 17.7297H14.232V16.3838V14.7014C14.232 14.3303 13.9302 14.0285 13.559 14.0285H11.8419ZM9.5212 11.6729H12.886C12.886 11.8587 13.0368 12.0094 13.2225 12.0094H14.9049C15.6472 12.0094 16.2508 12.6131 16.2508 13.3553V16.0472H15.9144H14.9049V14.7013C14.9049 13.959 14.3013 13.3553 13.559 13.3553H10.8671C10.1248 13.3553 9.5212 12.7517 9.5212 12.0094V11.6729ZM15.9145 16.7202H14.905V17.7296H17.218C17.0679 17.1499 16.5403 16.7202 15.9145 16.7202ZM17.903 17.7297C17.8014 17.1277 17.4336 16.6162 16.9238 16.3205V13.3554C16.9238 12.242 16.0184 11.3365 14.905 11.3365H13.559V9.99058H16.5874C16.7253 9.99058 16.8438 9.90679 16.8956 9.78801C17.1005 9.91419 17.3391 9.99058 17.5968 9.99058C17.8431 9.99058 18.0709 9.91924 18.2698 9.80349V13.6919V17.7297H17.903ZM18.2697 8.64454C18.2697 8.2734 17.9679 7.97157 17.5968 7.97157C17.2256 7.97157 16.9238 8.2734 16.9238 8.64454C16.9238 9.01567 17.2256 9.3175 17.5968 9.3175C17.9679 9.3175 18.2697 9.01567 18.2697 8.64454ZM13.1909 8.30811H16.2508V9.31755H13.2225C13.0368 9.31755 12.886 9.46829 12.886 9.65403V11H9.5212V8.30811C9.5212 7.77344 9.76851 7.28386 10.1989 6.96218H12.2073C12.5549 7.22194 12.7868 7.59914 12.8591 8.02782C12.8864 8.18966 13.0267 8.30811 13.1909 8.30811ZM9.06336 5.24759C9.10778 5.34349 9.15792 5.43669 9.21478 5.5262C9.21613 5.52788 9.21714 5.52956 9.21815 5.53124C9.27703 5.62344 9.34231 5.71193 9.41398 5.79572C9.60813 5.47842 9.93956 4.9996 10.374 4.60693H8.87292C8.88873 4.71528 8.91228 4.82228 8.94257 4.92692L8.94475 4.93332L8.94694 4.93971C8.97722 5.03998 9.01357 5.13823 9.05663 5.23346C9.05764 5.23581 9.05882 5.23817 9.06 5.24052L9.06204 5.24467L9.06336 5.24759ZM12.4042 6.28934H10.0031C9.99315 6.28344 9.98302 6.27786 9.97288 6.27228L9.97284 6.27226L9.97277 6.27222C9.95751 6.26382 9.94224 6.25542 9.92771 6.24593C10.2676 5.65675 11.0445 4.60693 11.8766 4.60693H13.5351C13.4352 5.30917 13.0223 5.92291 12.4042 6.28934ZM13.8747 3.93386C13.7085 2.60779 12.5738 1.57849 11.2037 1.57849C9.83353 1.57849 8.69891 2.60779 8.53269 3.93386H11.8766H13.8747ZM7.50237 9.31772H5.81996V8.64476H7.50237V9.31772ZM5.14694 11.0001V8.64476H4.47397V11.0001C4.47397 11.1855 4.62505 11.3366 4.81046 11.3366C4.99586 11.3366 5.14694 11.1855 5.14694 11.0001ZM3.80113 8.64476V9.31772H2.11872V8.64476H3.80113ZM3.80113 9.99062H2.11872V13.3554H6.82947H7.50243V9.99062H5.82002V11.0001C5.82002 11.5566 5.36712 12.0095 4.81058 12.0095C4.25404 12.0095 3.80113 11.5566 3.80113 11.0001V9.99062ZM3.67923 14.7014H1.44566V14.0285H1.78215H4.50563C4.50243 14.0305 4.49949 14.0327 4.49654 14.035C4.4936 14.0373 4.49066 14.0396 4.48746 14.0416C4.19472 14.228 3.92553 14.447 3.68562 14.6957L3.68243 14.6986L3.67923 14.7014ZM4.09685 15.2421C3.49724 15.9003 3.12812 16.7714 3.12812 17.7297V18.7392H3.80108V18.4027C3.80108 16.362 5.46162 14.7014 7.50238 14.7014C9.54314 14.7014 11.2037 16.362 11.2037 18.4027V18.7392H13.2226V18.0662V17.7297C13.2226 15.689 11.562 14.0285 9.52127 14.0285H7.83886H6.82941C6.69886 14.0285 6.56931 14.0355 6.44011 14.0496C6.43799 14.0498 6.43586 14.0502 6.43371 14.0506L6.43369 14.0506C6.4314 14.0511 6.42907 14.0515 6.42665 14.0517C6.04474 14.0937 5.67326 14.1953 5.32534 14.3511L5.32281 14.3523L5.32029 14.3535C5.2069 14.4046 5.09586 14.4615 4.98785 14.5238C4.98398 14.5259 4.9802 14.5283 4.97641 14.5306C4.97262 14.533 4.96884 14.5354 4.96497 14.5375C4.86403 14.5968 4.76577 14.6607 4.67055 14.7293C4.66225 14.7354 4.65426 14.7414 4.64626 14.7475L4.63421 14.7566C4.54437 14.8229 4.45722 14.8935 4.37344 14.9682C4.36533 14.9753 4.35736 14.9827 4.34935 14.99L4.34933 14.99L4.34931 14.9901L4.34928 14.9901L4.33339 15.0046C4.25129 15.08 4.17256 15.159 4.09685 15.2421ZM6.82941 20.4216C6.27287 20.4216 5.81996 19.9687 5.81996 19.4121H7.83885C7.83885 19.9687 7.38595 20.4216 6.82941 20.4216ZM5.53086 18.7391H8.12749H10.5306V18.4026C10.5306 16.733 9.17193 15.3743 7.50231 15.3743C5.83269 15.3743 4.47397 16.733 4.47397 18.4026V18.7391H5.53086ZM13.8955 18.739V18.4025H14.5685H17.5968H18.2698V18.739H17.3081H13.8955ZM17.5969 19.4121C17.5969 19.9687 18.0498 20.4216 18.6063 20.4216C19.1628 20.4216 19.6158 19.9687 19.6158 19.4121H18.6063H17.5969ZM20.2886 15.7109V18.7392H19.9044H18.9427V18.0662V14.0624C19.7096 14.2186 20.2886 14.8983 20.2886 15.7109ZM19.3587 8.64464L20.2887 9.10966V8.17962L19.3587 8.64464Z" fill="currentColor"/>
</svg>
