<svg width="24" height="24" viewBox="0 0 24 24" fill="none" xmlns="http://www.w3.org/2000/svg">
    <path d="M7.87179 10.0766H4.47692C3.66124 10.0766 3 10.7379 3 11.5536V12.3074C3 13.1146 3.65435 13.7689 4.46154 13.7689M7.87179 10.0766L13.4379 6.68677C14.0402 6.31994 14.8256 6.67501 14.923 7.37349C15.0663 8.40084 15.134 9.27624 15.1795 10.5382M7.87179 10.0766V13.7689M7.87179 13.7689L13.4599 17.1722C14.0562 17.5354 14.8357 17.1914 14.941 16.5012C15.0981 15.4712 15.1654 14.5916 15.1795 13.3074M7.87179 13.7689H6.41026M4.46154 13.7689L5.11751 16.2547C5.30516 16.9658 5.94829 17.4612 6.68371 17.4612C7.03789 17.4612 7.29615 17.126 7.20578 16.7835L6.41026 13.7689M4.46154 13.7689H6.41026M15.1795 10.5382H15.7436C16.5083 10.5382 17.1282 11.1581 17.1282 11.9228C17.1282 12.6875 16.5083 13.3074 15.7436 13.3074H15.1795M15.1795 10.5382V13.3074M19.5641 11.9228H21M18.6538 8.33304L19.5641 7.42276M18.6538 15.0766L19.5641 15.9228" stroke="currentColor" stroke-width="1.5" stroke-linecap="round"/>
</svg>
