<svg width="20" height="20" viewBox="0 0 24 24" fill="none" xmlns="http://www.w3.org/2000/svg">
    <path d="M12.0201 20.5299C9.69011 20.5299 7.36011 20.1599 5.15011 19.4199C4.31011 19.1299 3.67011 18.5399 3.39011 17.7699C3.10011 16.9999 3.20011 16.1499 3.66011 15.3899L4.81011 13.4799C5.05011 13.0799 5.27011 12.2799 5.27011 11.8099V8.91992C5.27011 5.19992 8.30011 2.16992 12.0201 2.16992C15.7401 2.16992 18.7701 5.19992 18.7701 8.91992V11.8099C18.7701 12.2699 18.9901 13.0799 19.2301 13.4899L20.3701 15.3899C20.8001 16.1099 20.8801 16.9799 20.5901 17.7699C20.3001 18.5599 19.6701 19.1599 18.8801 19.4199C16.6801 20.1599 14.3501 20.5299 12.0201 20.5299ZM12.0201 3.66992C9.13011 3.66992 6.77011 6.01992 6.77011 8.91992V11.8099C6.77011 12.5399 6.47011 13.6199 6.10011 14.2499L4.95011 16.1599C4.73011 16.5299 4.67011 16.9199 4.80011 17.2499C4.92011 17.5899 5.22011 17.8499 5.63011 17.9899C9.81011 19.3899 14.2401 19.3899 18.4201 17.9899C18.7801 17.8699 19.0601 17.5999 19.1901 17.2399C19.3201 16.8799 19.2901 16.4899 19.0901 16.1599L17.9401 14.2499C17.5601 13.5999 17.2701 12.5299 17.2701 11.7999V8.91992C17.2701 6.01992 14.9201 3.66992 12.0201 3.66992Z" fill="currentColor"/>
    <path d="M13.8801 3.93993C13.8101 3.93993 13.7401 3.92993 13.6701 3.90993C13.3801 3.82993 13.1001 3.76993 12.8301 3.72993C11.9801 3.61993 11.1601 3.67993 10.3901 3.90993C10.1101 3.99993 9.81011 3.90993 9.62011 3.69993C9.43011 3.48993 9.37011 3.18993 9.48011 2.91993C9.89011 1.86993 10.8901 1.17993 12.0301 1.17993C13.1701 1.17993 14.1701 1.85993 14.5801 2.91993C14.6801 3.18993 14.6301 3.48993 14.4401 3.69993C14.2901 3.85993 14.0801 3.93993 13.8801 3.93993Z" fill="currentColor"/>
    <path d="M12.02 22.8101C11.03 22.8101 10.07 22.4101 9.37002 21.7101C8.67002 21.0101 8.27002 20.0501 8.27002 19.0601H9.77002C9.77002 19.6501 10.01 20.2301 10.43 20.6501C10.85 21.0701 11.43 21.3101 12.02 21.3101C13.26 21.3101 14.27 20.3001 14.27 19.0601H15.77C15.77 21.1301 14.09 22.8101 12.02 22.8101Z" fill="currentColor"/>
</svg>

