<svg width="63" height="48" viewBox="0 0 63 48" fill="none" xmlns="http://www.w3.org/2000/svg">
    <path d="M15.9919 24.2249L14.629 17.6361C14.5334 17.2519 14.2997 16.9162 13.9725 16.6931C13.6453 16.4701 13.2475 16.3751 12.8548 16.4265H6.54839L6.5 16.741C11.4032 17.9184 14.6452 20.7732 15.9919 24.2249ZM20.5726 16.5716L16.5887 26.741L16.1774 25.2087C14.8793 22.6837 12.9304 20.5511 10.5323 19.0313L14.1694 31.4587H18.4677L24.871 16.5716H20.5726ZM26.5242 16.5716L23.9839 31.491H28.0161L30.5645 16.5716H26.5242ZM53.2097 16.5716H50.0484C49.6061 16.514 49.1572 16.6046 48.772 16.8294C48.3867 17.0541 48.0869 17.4002 47.9194 17.8136L41.9113 31.4749H46.1774C46.1774 31.4749 46.871 29.6361 47.0323 29.2329H52.2339C52.3548 29.749 52.7258 31.4587 52.7258 31.4587H56.5L53.2097 16.5716ZM48.2016 26.1845C48.5403 25.3297 49.8145 22.0152 49.8145 22.0152C49.8145 22.0152 50.1532 21.1603 50.3548 20.5958L50.6371 21.8781L51.5726 26.1845H48.2016ZM38.7581 22.5474C37.3468 21.8619 36.4758 21.3942 36.4839 20.7007C36.4919 20.0071 37.2177 19.4184 38.8065 19.4184C39.8491 19.3906 40.8857 19.5858 41.8468 19.991L42.2177 20.1603L42.7661 16.9345C41.6005 16.5123 40.3687 16.302 39.129 16.3136C35.0968 16.3136 32.2823 18.3297 32.2581 21.2329C32.2581 23.37 34.2742 24.5716 35.8145 25.2652C37.3548 25.9587 37.9516 26.4668 37.9516 27.12C37.9516 28.12 36.6855 28.5797 35.5323 28.5797C34.2128 28.6101 32.9044 28.3341 31.7097 27.7732L31.1855 27.5313L30.6129 30.87C32.0625 31.4106 33.5981 31.6838 35.1452 31.6765C39.4113 31.6765 42.1855 29.6765 42.2177 26.5797C42.2097 24.9023 41.129 23.6119 38.7581 22.5474Z" fill="#273991"/>
    <path d="M14.629 17.6361C14.5334 17.2519 14.2997 16.9162 13.9725 16.6931C13.6453 16.47 13.2475 16.3751 12.8548 16.4265H6.54839L6.5 16.741C11.4032 17.9265 14.6452 20.7732 15.9919 24.2329L14.629 17.6361Z" fill="#F99F1B"/>
</svg>
