<svg width="24" height="24" viewBox="0 0 24 24" fill="none" xmlns="http://www.w3.org/2000/svg">
<path fill-rule="evenodd" clip-rule="evenodd" d="M18.6803 2.18468C18.4412 2.21096 18.2617 2.41559 18.2669 2.65614V6.36987C18.2669 7.48798 19.068 8.43027 20.1238 8.64743V10.6349C19.586 10.8283 19.1953 11.3399 19.1953 11.9405V19.3679C19.1953 20.1314 19.8245 20.7606 20.588 20.7606C21.3515 20.7606 21.9806 20.1314 21.9806 19.3679V11.9405C21.9806 11.3399 21.5899 10.8283 21.0522 10.6349V8.64743C22.1079 8.43027 22.9091 7.48798 22.9091 6.36987V2.65614C22.9114 2.48872 22.8235 2.333 22.6789 2.24861C22.5343 2.16421 22.3554 2.16421 22.2108 2.24861C22.0662 2.333 21.9783 2.48872 21.9806 2.65614V6.36987C21.9806 6.98616 21.5979 7.50247 21.0522 7.68999V2.65614C21.0551 2.52245 21.0002 2.39401 20.9015 2.30371C20.8029 2.21342 20.6701 2.17004 20.5372 2.18468C20.298 2.21096 20.1186 2.41559 20.1238 2.65614V7.68999C19.5781 7.50247 19.1953 6.98616 19.1953 6.36987V2.65614C19.1982 2.52245 19.1433 2.39401 19.0447 2.30371C18.946 2.21342 18.8132 2.17004 18.6803 2.18468ZM3.4119 2.19192C2.71099 2.19192 2.11109 2.61993 1.71461 3.21464C1.31813 3.80937 1.09082 4.58867 1.09082 5.44144C1.09082 6.2942 1.31813 7.07351 1.71461 7.66824C2.02058 8.12718 2.44649 8.48537 2.94769 8.62568V10.6349C2.40993 10.8283 2.01925 11.3399 2.01925 11.9405V19.3679C2.01925 20.1314 2.6484 20.7606 3.4119 20.7606C4.1754 20.7606 4.80455 20.1314 4.80455 19.3679V11.9405C4.80455 11.3399 4.41387 10.8283 3.87612 10.6349V8.62568C4.37732 8.48537 4.80322 8.12718 5.1092 7.66824C5.50567 7.07351 5.73299 6.2942 5.73299 5.44144C5.73299 4.58867 5.50567 3.80937 5.1092 3.21464C4.71272 2.61993 4.11282 2.19192 3.4119 2.19192ZM4.34035 3.72973C4.06477 3.31637 3.7365 3.12045 3.41191 3.12045C3.08733 3.12045 2.75906 3.31637 2.48348 3.72973C2.2079 4.1431 2.01926 4.75602 2.01926 5.44153C2.01926 6.12704 2.2079 6.73997 2.48348 7.15333C2.75906 7.56669 3.08733 7.76262 3.41191 7.76262C3.7365 7.76262 4.06477 7.56669 4.34035 7.15333C4.61593 6.73997 4.80456 6.12704 4.80456 5.44153C4.80456 4.75602 4.61593 4.1431 4.34035 3.72973ZM12 4.97734C8.41614 4.97734 5.50093 7.89257 5.50093 11.4764C5.50093 15.0602 8.41614 17.9754 12 17.9754C15.5838 17.9754 18.499 15.0602 18.499 11.4764C18.499 7.89257 15.5838 4.97734 12 4.97734ZM17.5706 11.4764C17.5706 8.39433 15.082 5.90578 12 5.90578C8.91792 5.90578 6.42938 8.39433 6.42938 11.4764C6.42938 14.5584 8.91792 17.047 12 17.047C15.082 17.047 17.5706 14.5584 17.5706 11.4764ZM11.9999 7.99465C10.0825 7.99465 8.51824 9.55892 8.51824 11.4763C8.51824 13.3936 10.0825 14.9579 11.9999 14.9579C13.9172 14.9579 15.4815 13.3936 15.4815 11.4763C15.4815 9.55892 13.9172 7.99465 11.9999 7.99465ZM14.5531 11.4763C14.5531 10.0607 13.4155 8.9231 11.9999 8.9231C10.5843 8.9231 9.44669 10.0607 9.44669 11.4763C9.44669 12.8919 10.5843 14.0295 11.9999 14.0295C13.4155 14.0295 14.5531 12.8919 14.5531 11.4763ZM3.41193 11.4762C3.67713 11.4762 3.87614 11.6752 3.87614 11.9404V19.3679C3.87614 19.6331 3.67713 19.8321 3.41193 19.8321C3.14672 19.8321 2.94771 19.6331 2.94771 19.3679V11.9404C2.94771 11.6752 3.14672 11.4762 3.41193 11.4762ZM21.0521 11.9404C21.0521 11.6752 20.8531 11.4762 20.5879 11.4762C20.3227 11.4762 20.1237 11.6752 20.1237 11.9404V19.3679C20.1237 19.6331 20.3227 19.8321 20.5879 19.8321C20.8531 19.8321 21.0521 19.6331 21.0521 19.3679V11.9404Z" fill="currentColor"/>
</svg>
