<svg width="24" height="24" viewBox="0 0 24 24" fill="none" xmlns="http://www.w3.org/2000/svg">
    <path fill-rule="evenodd" clip-rule="evenodd" d="M3.92308 6.4H20.0769V14.9333H20.3077C20.69 14.9333 21 15.2467 21 15.6333C21 16.0199 20.69 16.3333 20.3077 16.3333H12.6923V17.4024C13.3689 17.6793 13.8462 18.3499 13.8462 19.1333C13.8462 20.1643 13.0196 21 12 21C10.9804 21 10.1538 20.1643 10.1538 19.1333C10.1538 18.3499 10.6311 17.6793 11.3077 17.4024V16.3333H3.69231C3.30996 16.3333 3 16.0199 3 15.6333C3 15.2467 3.30996 14.9333 3.69231 14.9333H3.92308L3.92308 6.4ZM15.9231 8.86667C15.9231 8.48007 15.6131 8.16667 15.2308 8.16667C14.8484 8.16667 14.5385 8.48007 14.5385 8.86667V12.8C14.5385 13.1866 14.8484 13.5 15.2308 13.5C15.6131 13.5 15.9231 13.1866 15.9231 12.8V8.86667ZM12.6923 10.1111C12.6923 9.72451 12.3824 9.41111 12 9.41111C11.6176 9.41111 11.3077 9.72451 11.3077 10.1111V12.8C11.3077 13.1866 11.6176 13.5 12 13.5C12.3824 13.5 12.6923 13.1866 12.6923 12.8V10.1111ZM9.46154 11.3556C9.46154 10.969 9.15158 10.6556 8.76923 10.6556C8.38688 10.6556 8.07692 10.969 8.07692 11.3556V12.8C8.07692 13.1866 8.38688 13.5 8.76923 13.5C9.15158 13.5 9.46154 13.1866 9.46154 12.8V11.3556Z" fill="currentColor"/>
    <path d="M20 3H4C3.44772 3 3 3.3731 3 3.83333V4.66667C3 5.1269 3.44772 5.5 4 5.5H20C20.5523 5.5 21 5.1269 21 4.66667V3.83333C21 3.3731 20.5523 3 20 3Z" fill="currentColor"/>
</svg>
