<svg width="24" height="24" viewBox="0 0 24 24" fill="none" xmlns="http://www.w3.org/2000/svg">
    <path d="M12 12.75C8.83 12.75 6.25 10.17 6.25 7C6.25 3.83 8.83 1.25 12 1.25C15.17 1.25 17.75 3.83 17.75 7C17.75 10.17 15.17 12.75 12 12.75ZM12 2.75C9.66 2.75 7.75 4.66 7.75 7C7.75 9.34 9.66 11.25 12 11.25C14.34 11.25 16.25 9.34 16.25 7C16.25 4.66 14.34 2.75 12 2.75Z" fill="currentColor"/>
    <path d="M3.41016 22.75C3.00016 22.75 2.66016 22.41 2.66016 22C2.66016 17.73 6.85018 14.25 12.0002 14.25C13.0902 14.25 14.1702 14.41 15.1802 14.71C15.5802 14.83 15.8002 15.25 15.6802 15.64C15.5602 16.04 15.1402 16.26 14.7502 16.14C13.8702 15.88 12.9502 15.74 12.0002 15.74C7.68018 15.74 4.16016 18.54 4.16016 21.99C4.16016 22.41 3.82016 22.75 3.41016 22.75Z" fill="currentColor"/>
    <path d="M18.4353 22.0608C17.7166 22.0608 16.998 21.948 16.3164 21.7226C16.0573 21.6342 15.8599 21.4545 15.7735 21.2199C15.6841 20.9853 15.7149 20.7263 15.8568 20.4948L16.2115 19.9128C16.2855 19.791 16.3534 19.5472 16.3534 19.404V18.5236C16.3534 17.3902 17.2879 16.467 18.4353 16.467C19.5827 16.467 20.5172 17.3902 20.5172 18.5236V19.404C20.5172 19.5442 20.5851 19.791 20.6591 19.9159L21.0107 20.4948C21.1433 20.7141 21.168 20.9792 21.0786 21.2199C20.9891 21.4606 20.7948 21.6434 20.5511 21.7226C19.8726 21.948 19.1539 22.0608 18.4353 22.0608ZM18.4353 16.924C17.5439 16.924 16.816 17.64 16.816 18.5236V19.404C16.816 19.6265 16.7235 19.9555 16.6094 20.1474L16.2547 20.7294C16.1868 20.8421 16.1683 20.9609 16.2084 21.0614C16.2454 21.165 16.3379 21.2442 16.4644 21.2869C17.7537 21.7134 19.12 21.7134 20.4093 21.2869C20.5203 21.2503 20.6067 21.1681 20.6468 21.0584C20.6868 20.9487 20.6776 20.8299 20.6159 20.7294L20.2612 20.1474C20.144 19.9494 20.0546 19.6234 20.0546 19.401V18.5236C20.0546 17.64 19.3297 16.924 18.4353 16.924Z" fill="currentColor" stroke="currentColor" stroke-width="0.619"/>
    <path d="M18.9717 16.649C18.9501 16.649 18.9285 16.6459 18.9069 16.6399C18.8175 16.6155 18.7311 16.5972 18.6478 16.585C18.3856 16.5515 18.1327 16.5698 17.8952 16.6399C17.8089 16.6673 17.7163 16.6399 17.6577 16.5759C17.5991 16.5119 17.5806 16.4205 17.6146 16.3382C17.741 16.0183 18.0495 15.8081 18.4011 15.8081C18.7527 15.8081 19.0611 16.0153 19.1876 16.3382C19.2184 16.4205 19.203 16.5119 19.1444 16.5759C19.0981 16.6246 19.0334 16.649 18.9717 16.649Z" fill="currentColor" stroke="currentColor" stroke-width="0.6"/>
    <path d="M18.4764 23.3707C18.1711 23.3707 17.875 23.2488 17.6591 23.0355C17.4432 22.8223 17.3198 22.5298 17.3198 22.2281H17.7825C17.7825 22.4079 17.8565 22.5846 17.986 22.7126C18.1156 22.8405 18.2945 22.9137 18.4764 22.9137C18.8589 22.9137 19.1704 22.6059 19.1704 22.2281H19.6331C19.6331 22.8588 19.1149 23.3707 18.4764 23.3707Z" fill="currentColor" stroke="currentColor" stroke-width="0.499998"/>
</svg>
