<svg width="24" height="24" viewBox="0 0 24 24" fill="none" xmlns="http://www.w3.org/2000/svg">
<path d="M7.15846 7.10639C8.58363 6.18309 10.2346 5.5 12 5.5C15.5119 5.5 18.5708 8.20315 20.3006 10.123C21.2331 11.1582 21.2331 12.8418 20.3006 13.877C19.4728 14.7957 18.3406 15.8939 17 16.7894M5 8.80216C4.51017 9.25558 4.0737 9.70764 3.69945 10.123C2.76685 11.1582 2.76685 12.8418 3.69945 13.877C5.42915 15.7969 8.4881 18.5 12 18.5C12.8219 18.5 13.6189 18.352 14.38 18.1005" stroke="currentColor" stroke-width="1.5" stroke-linecap="round"/>
<path d="M4 4L9.87868 9.87868M20 20L14.1213 14.1213M9.87868 9.87868C10.4216 9.33579 11.1716 9 12 9C13.6569 9 15 10.3431 15 12C15 12.8284 14.6642 13.5784 14.1213 14.1213M9.87868 9.87868L14.1213 14.1213" stroke="currentColor" stroke-width="1.5" stroke-linecap="round"/>
<path d="M9.0415 12.5C9.25226 13.7563 10.2438 14.7478 11.5 14.9585" stroke="currentColor" stroke-width="1.5" stroke-linecap="round"/>
</svg>
