<svg width="25" height="24" viewBox="0 0 25 24" fill="none" xmlns="http://www.w3.org/2000/svg">
    <path d="M3.79912 6.59319C3.90769 5.61526 4.84486 4.8448 6.01848 4.76051C10.8428 4.41402 14.1924 4.41302 18.9781 4.75838C20.1574 4.84349 21.0958 5.62169 21.2002 6.6048C21.6214 10.5728 21.5825 13.3744 21.1853 17.3756C21.0866 18.3697 20.1418 19.1615 18.9497 19.2457C14.15 19.5849 10.8044 19.5841 6.06588 19.2474C4.87088 19.1624 3.92612 18.3664 3.8285 17.3698C3.44056 13.4091 3.35423 10.6005 3.79912 6.59319Z" stroke="currentColor" stroke-width="1.5"/>
    <path d="M6.5 8L10.8107 11.9515C11.7665 12.8276 13.2335 12.8276 14.1893 11.9515L18.5 8" stroke="currentColor" stroke-width="1.5" stroke-linecap="round"/>
</svg>
