<svg width="16" height="20" viewBox="0 0 16 20" fill="none" xmlns="http://www.w3.org/2000/svg">
<path d="M11.4999 4.5C11.4999 6.433 9.93293 8 7.99993 8C6.06694 8 4.49993 6.433 4.49993 4.5C4.49993 2.567 6.06694 1 7.99993 1C9.93293 1 11.4999 2.567 11.4999 4.5Z" stroke="currentColor" stroke-width="1.5"/>
<path d="M1.42407 15.4898C1.76687 13.1147 3.6056 11.1739 5.99892 10.9995C7.36633 10.8999 8.63829 10.8997 10.0031 10.999C12.3954 11.1729 14.2328 13.1137 14.5755 15.4878L14.6421 15.9495C14.8396 17.3178 13.8891 18.595 12.5145 18.7424C9.28838 19.0883 6.72204 19.0843 3.49114 18.7397C2.11438 18.5928 1.16069 17.3146 1.35848 15.9442L1.42407 15.4898Z" stroke="currentColor" stroke-width="1.5"/>
</svg>
