<svg width="24" height="24" viewBox="0 0 24 24" fill="none" xmlns="http://www.w3.org/2000/svg">
<path d="M18.5 3C19.4665 3 20.5 3.5 20.5 4.78736V9.10674C20.5 9.38877 20.2761 9.61741 20 9.61741H17M18.5 3C17.5335 3 17 3.80023 17 4.78736V9.61741M18.5 3H6C4.61929 3 3.5 4.14318 3.5 5.55337V19.6891C3.5 20.1142 3.98497 20.3505 4.31235 20.085L5.63161 19.0149C5.83843 18.8471 6.13841 18.872 6.3156 19.0716L7.87835 20.8322C8.07697 21.0559 8.42303 21.0559 8.62165 20.8322L10.1284 19.1347C10.327 18.911 10.673 18.911 10.8716 19.1347L12.3293 20.777C12.5445 21.0194 12.9262 20.9957 13.1106 20.7285L14.1943 19.1588C14.3599 18.919 14.6908 18.8708 14.9163 19.0537L16.1877 20.085C16.515 20.3505 17 20.1142 17 19.6891V9.61741" stroke="#828487" stroke-width="1.5"/>
<path d="M6.75 8.5H13.75" stroke="#828487" stroke-width="1.5" stroke-linecap="round"/>
<path d="M6.75 11.5H13.75" stroke="#828487" stroke-width="1.5" stroke-linecap="round"/>
<path d="M6.75 14.5H11.5" stroke="#828487" stroke-width="1.5" stroke-linecap="round"/>
</svg>
