<svg width="37" height="33" viewBox="0 0 37 33" fill="none" xmlns="http://www.w3.org/2000/svg">
    <path d="M17.5799 0.00625099C13.291 0.0989604 9.0368 1.58559 5.69617 4.448C5.51262 4.60531 5.40488 4.82308 5.39667 5.05306C5.38846 5.28303 5.48045 5.50655 5.6524 5.67448C5.82434 5.84242 6.06217 5.94099 6.31356 5.94852C6.56495 5.95605 6.80931 5.87178 6.9929 5.7145C12.9825 0.582371 22.2069 0.380425 28.4548 5.24767C34.7044 10.1149 35.9595 18.4753 31.3724 24.7001C26.787 30.9232 17.84 33.001 10.5624 29.5343C3.28301 26.0643 0.0221279 18.1708 2.97443 11.1679C3.01959 11.0617 3.04143 10.9484 3.03871 10.8345C3.036 10.7205 3.00878 10.6082 2.95861 10.5038C2.90844 10.3995 2.8363 10.3052 2.74631 10.2264C2.65632 10.1476 2.55025 10.0858 2.43414 10.0445C2.31804 10.0032 2.19417 9.98319 2.06963 9.98568C1.94508 9.98816 1.82229 10.0131 1.70826 10.059C1.59423 10.1049 1.4912 10.1709 1.40505 10.2532C1.3189 10.3356 1.25132 10.4326 1.20617 10.5388C-2.08765 18.3529 1.56849 27.1984 9.68863 31.0673C17.807 34.938 27.8307 32.6085 32.9465 25.6653C38.0623 18.722 36.6564 9.35345 29.6839 3.92499C26.1994 1.20993 21.8723 -0.0880751 17.5817 0.00463426L17.5799 0.00625099Z" fill="#ff5c00"/>
    <path d="M4.79658 7.67127C4.79658 7.8908 4.70526 8.10149 4.5427 8.25672C4.38014 8.41196 4.15967 8.49903 3.92978 8.49903C3.6999 8.49903 3.47942 8.41196 3.31687 8.25672C3.15431 8.10149 3.06299 7.8908 3.06299 7.67127C3.06299 7.45173 3.15431 7.24125 3.31687 7.08601C3.47942 6.93078 3.6999 6.84351 3.92978 6.84351C4.15967 6.84351 4.38014 6.93078 4.5427 7.08601C4.70526 7.24125 4.79658 7.45173 4.79658 7.67127Z" fill="#ff5c00"/>
    <path d="M12.928 11.6054C12.9805 11.7362 13.1379 11.8016 13.2952 11.8016C13.3477 11.8016 13.4001 11.8016 13.4526 11.7798C13.6624 11.7144 13.7411 11.5182 13.6624 11.3438L11.7741 7.83427C11.6954 7.65988 11.4593 7.59449 11.2495 7.65988C11.0397 7.72528 10.961 7.92147 11.0397 8.09586L12.928 11.6054Z" fill="#ff5c00"/>
    <path d="M9.88566 12.8043C9.99056 12.8043 10.1217 12.7607 10.2004 12.6735C10.3315 12.5427 10.3053 12.3248 10.1479 12.2158L7.68258 10.5809C7.52522 10.4937 7.26295 10.5155 7.13181 10.6463C7.00068 10.7771 7.02691 10.9951 7.18427 11.104L9.64961 12.7389C9.72829 12.7825 9.80698 12.8043 9.88566 12.8043Z" fill="#ff5c00"/>
    <path d="M22.3959 11.7362C22.4483 11.758 22.5008 11.758 22.5532 11.758C22.7106 11.758 22.8417 11.6926 22.9204 11.5618L24.3891 8.90238C24.4678 8.728 24.3891 8.55361 24.2055 8.46641C23.9957 8.40102 23.7859 8.46641 23.681 8.619L22.2123 11.2784C22.1074 11.4528 22.1861 11.649 22.3959 11.7362Z" fill="#ff5c00"/>
    <path d="M27.9825 10.3411C27.8251 10.2321 27.5629 10.2321 27.4317 10.3847L25.4647 12.2594C25.3336 12.3902 25.3336 12.6082 25.5171 12.7172C25.5958 12.7608 25.6745 12.8044 25.7794 12.8044C25.8843 12.8044 25.9892 12.7608 26.0679 12.6954L28.0349 10.7989C28.1661 10.6681 28.1661 10.4501 27.9825 10.3411Z" fill="#ff5c00"/>
    <path d="M17.8585 11.3438C17.8847 11.3438 17.8847 11.3438 17.8585 11.3438C18.0945 11.3438 18.2519 11.213 18.2519 11.0386L18.3568 8.77156C18.3568 8.59717 18.1994 8.44458 17.9896 8.44458C17.7798 8.44458 17.5962 8.57537 17.5962 8.74976L17.5175 10.995C17.4913 11.1912 17.6486 11.3438 17.8585 11.3438Z" fill="#ff5c00"/>
    <path d="M27.7727 18.8862C27.7465 18.799 27.6941 18.7336 27.6154 18.69C27.458 18.472 27.1433 18.1668 26.6187 17.8834C26.6974 17.7962 26.7761 17.7308 26.8023 17.6436V17.6218C26.8286 17.5564 27.3269 15.7908 25.7795 14.4829C24.6517 13.5455 21.216 12.8262 17.9114 12.8262C16.1279 12.8262 13.5839 13.0442 11.5906 14.0469C11.3546 14.1559 8.88925 15.3766 9.25643 17.9924C9.28266 18.1014 9.30888 18.1886 9.38756 18.2758C8.62698 18.7336 7.86639 19.3003 7.94508 19.7363C7.9713 19.8235 8.04998 20.0633 8.41716 20.1723C8.57452 20.2159 8.73189 20.2377 8.91548 20.2377C9.30888 20.2377 9.62361 20.1287 9.85965 20.0415V20.0851C9.88588 20.2159 9.88588 20.3685 9.93833 20.5428C9.91211 20.5646 9.9121 20.6082 9.88588 20.63C9.54493 20.7608 9.12529 21.0006 9.09907 21.3494C9.09907 21.3712 9.09907 21.4148 9.07284 21.4366C8.8368 22.8099 9.38756 23.7254 10.7251 24.1178C11.9578 24.4884 14.1609 24.9461 17.3081 24.9461C18.8818 24.9461 20.6914 24.8372 22.7371 24.532C26.7237 23.9434 27.0384 23.3549 26.9072 21.6764C26.9072 21.5674 26.881 21.4584 26.881 21.3276C26.881 21.1096 26.7499 20.9352 26.5663 20.8262C26.4352 20.739 26.2778 20.6954 26.1204 20.6736C26.4089 20.6518 26.7237 20.6082 27.0122 20.5428C27.1433 20.521 27.2482 20.4339 27.3006 20.3249L27.7727 19.1259C27.799 19.0605 27.799 18.9952 27.7727 18.908C27.799 18.908 27.7727 18.8862 27.7727 18.8862ZM11.0136 23.5074C9.78097 23.1369 9.72852 22.3085 9.85965 21.5456C9.85965 21.502 9.88588 21.4584 9.88588 21.4366C9.88588 21.4148 9.93833 21.393 9.96456 21.3494C10.0695 21.4148 10.3317 21.502 10.6727 21.611C10.7251 21.6328 10.7776 21.6328 10.8301 21.6546C11.6431 21.8726 12.902 22.1341 14.4494 22.3085C14.6854 22.6137 14.9739 22.8535 15.3411 22.8535C15.4722 22.8535 15.5772 22.8317 15.7083 22.7881C15.8919 22.7227 16.023 22.5919 16.1017 22.4611C18.9604 22.6355 22.4486 22.4393 25.8582 21.284C25.9893 21.3058 26.068 21.3276 26.0942 21.3494C26.0942 21.4802 26.1204 21.5892 26.1204 21.6982C26.2253 22.9843 26.2516 23.3331 22.606 23.878C16.6525 24.7718 12.7971 24.0306 11.0136 23.5074ZM12.0103 14.5919C13.8462 13.6545 16.2328 13.4583 17.9114 13.4583C21.2422 13.4583 24.3632 14.2213 25.2287 14.9188C26.4089 15.8998 26.0942 17.2513 26.068 17.4039C26.0417 17.4475 25.9893 17.4911 25.9106 17.5347C25.8057 17.6 25.6221 17.6654 25.4123 17.7308C25.2549 17.7744 25.0713 17.8398 24.8615 17.8834C24.5468 17.9488 24.2059 18.036 23.8124 18.1014C23.6026 18.145 23.3666 18.1668 23.1305 18.2104L22.6585 18.2758C22.4486 18.2976 22.2388 18.3194 22.029 18.363C21.8454 18.3848 21.6618 18.4066 21.452 18.4284C21.2684 18.4502 21.1111 18.472 20.9275 18.472C20.7439 18.4938 20.5603 18.5156 20.3505 18.5156C20.0882 18.5374 19.8522 18.5592 19.5637 18.581C18.4359 18.6464 17.2032 18.69 15.9181 18.69C13.2954 18.69 11.7742 18.4938 10.935 18.2976C10.6989 18.2322 10.4891 18.1668 10.358 18.1232C10.1481 18.036 10.0432 17.9488 10.0432 17.8834C9.72852 15.6164 11.8791 14.6354 12.0103 14.5919ZM13.8986 20.8044H13.6888L13.2954 20.63C13.5839 20.4774 13.7675 20.4121 13.8462 20.3685V20.4774C13.8724 20.5428 13.8724 20.6736 13.8986 20.8044ZM23.3666 20.5428C23.2355 20.6954 23.1043 20.7826 22.842 20.7608C22.4486 20.7172 22.4486 20.7608 22.2651 20.6082C22.1601 20.521 21.9766 20.3685 21.7667 20.3031C21.7667 20.2813 21.793 20.2377 21.793 20.2159C22.2651 20.3249 22.7896 20.4557 23.3666 20.5428ZM18.7244 20.9352L18.8031 20.739C18.8293 20.5864 19.2227 20.5646 19.3014 20.5646C19.6686 20.5646 20.0882 20.6736 20.3767 20.848C20.4029 20.8698 20.4292 20.8698 20.4554 20.8916C20.4292 20.9134 20.4029 20.9352 20.3767 20.9352C20.2456 21.0224 20.1144 21.0878 19.9833 21.175C19.5899 21.3712 19.0391 21.502 19.0391 21.502C19.0391 21.502 18.2523 21.72 17.8589 21.393C18.2523 21.393 18.567 21.2186 18.7244 20.9352ZM26.1991 18.7336C25.4648 18.7772 24.8091 18.7554 24.2583 18.69C24.5206 18.6464 24.7566 18.581 24.9927 18.5374C25.3336 18.4502 25.6483 18.363 25.8844 18.254C26.1991 18.3848 26.4614 18.5374 26.6187 18.69C26.4876 18.7118 26.3565 18.7336 26.1991 18.7336ZM10.017 18.7118C10.3842 18.8862 10.9087 19.0169 11.5644 19.1259L11.0923 19.7799C10.9874 19.9325 11.0399 20.1287 11.2235 20.2377C11.2759 20.2595 11.3546 20.2813 11.4333 20.2813C11.5644 20.2813 11.6955 20.2159 11.7742 20.1287L12.4037 19.2567C13.2954 19.3439 14.3969 19.3875 15.6558 19.4093L15.7607 19.9107C15.787 20.0633 15.9706 20.1723 16.1541 20.1723H16.2328C16.4426 20.1287 16.5738 19.9761 16.5476 19.7799L16.4689 19.3875C17.413 19.3657 18.567 19.3439 19.7473 19.2567C19.9571 19.2349 20.1407 19.2349 20.3505 19.2131C20.4554 19.2131 20.5341 19.1913 20.639 19.1913C20.7701 19.3221 20.875 19.4747 20.9537 19.6055C21.0324 19.7363 21.0586 19.8889 21.0586 19.9979V20.1287C21.0324 20.3031 20.9275 20.3903 20.9275 20.3903C20.9275 20.3903 20.9012 20.3903 20.9012 20.3685C20.4816 20.1069 19.9046 19.9543 19.3538 19.9543C18.6719 19.9543 18.1999 20.2159 18.0949 20.6518C18.0949 20.6954 18.0687 20.7826 17.8589 20.7826C17.6491 20.7826 17.2819 20.6736 16.9934 20.4339C16.8623 20.3249 16.7049 20.2595 16.5476 20.2595C16.2328 20.2595 16.0755 20.4339 15.9706 20.6954C15.9443 20.7608 15.9181 20.8262 15.8919 20.9134L15.8132 21.2404C15.7607 21.5674 15.6296 22.1341 15.4198 22.2431C15.21 22.1777 14.869 21.4802 14.7641 20.8916C14.7641 20.8698 14.7641 20.8262 14.7379 20.8044C14.7117 20.6954 14.7117 20.6082 14.7117 20.4992C14.7117 19.8017 14.2133 19.7145 14.0035 19.7145C13.7413 19.7145 13.3479 19.8017 12.4299 20.3903C12.2725 20.4774 12.1152 20.5864 11.9316 20.7172C11.8791 20.7608 11.8005 20.8044 11.748 20.8262C11.4333 21.0224 11.2497 21.0442 11.171 21.0442C11.0661 21.0442 10.9874 20.957 10.9087 20.8262L10.8301 20.63L10.7514 20.3031C10.7251 20.1941 10.7251 20.1069 10.7251 20.0415C10.7251 19.9325 10.6989 19.8453 10.6989 19.7799C10.6465 19.4529 10.358 19.3439 10.1481 19.3439C9.99079 19.3439 9.83342 19.3875 9.64983 19.4529C9.41379 19.5183 9.15152 19.6273 8.88925 19.5837C8.99416 19.3657 9.49247 19.0169 10.017 18.7118ZM26.645 19.9543C26.4089 19.9979 26.1729 20.0197 25.9631 20.0415C25.3336 20.0851 24.7042 20.0633 24.1272 19.9979C23.2092 19.8889 22.3962 19.6927 21.7405 19.4965C21.6881 19.3657 21.6356 19.2349 21.5307 19.1041C21.8716 19.0605 22.2126 19.0387 22.5536 18.9952C23.2355 19.2349 24.1796 19.4529 25.4385 19.4529C25.8844 19.4529 26.3827 19.4311 26.9072 19.3657L26.645 19.9543Z" fill="#ff5c00"/>
</svg>
