<svg width="44" height="44" viewBox="0 0 44 44" fill="none" xmlns="http://www.w3.org/2000/svg">
<path d="M38.5137 14.8728C37.8384 13.3282 36.9447 11.8887 35.8597 10.5986C34.2561 8.63456 32.2547 7.03248 29.9874 5.89786C27.7201 4.76324 25.2382 4.12179 22.7052 4.01572C20.1723 3.90965 17.6455 4.34136 15.2913 5.28247C12.9372 6.22357 10.8089 7.65271 9.04671 9.47584C7.28448 11.2989 5.92822 13.4747 5.0672 15.8599C4.20618 18.2451 3.8599 20.7857 4.05117 23.3144C4.24246 25.8431 4.96693 28.3026 6.17694 30.531C7.38695 32.7596 9.05506 34.7064 11.0715 36.2435C12.3653 37.2495 13.7949 38.0673 15.3178 38.6726C17.453 39.5479 19.7382 39.9987 22.0457 40C26.8088 39.9895 31.3734 38.0903 34.7391 34.7188C38.1046 31.3472 39.9965 26.7785 40 22.0141C40.0034 19.5564 39.4974 17.1248 38.5137 14.8728ZM22.0324 7.66511C24.1047 7.6649 26.1518 8.11793 28.0305 8.99249C27.5724 9.19049 27.0907 9.32879 26.5973 9.40399C24.9739 9.63905 23.47 10.393 22.31 11.5532C21.1501 12.7135 20.3964 14.2178 20.1614 15.8418C20.0583 16.7525 19.6441 17.5997 18.989 18.2406C18.3338 18.8815 17.4778 19.2765 16.5652 19.3593C14.9418 19.5944 13.4378 20.3483 12.2779 21.5086C11.118 22.6689 10.3643 24.1732 10.1293 25.7971C10.0497 26.6631 9.68035 27.4769 9.08096 28.1067C8.04676 25.9209 7.58218 23.5088 7.73043 21.0951C7.87868 18.6814 8.63495 16.3444 9.92887 14.3016C11.2228 12.2589 13.0123 10.5767 15.1309 9.41174C17.2494 8.24674 19.6282 7.63677 22.0457 7.63856L22.0324 7.66511ZM11.0582 31.3057C11.2174 31.1597 11.3767 31.0269 11.5359 30.8677C12.7165 29.7228 13.4743 28.2114 13.6856 26.5802C13.7713 25.6633 14.1806 24.8069 14.8401 24.1644C15.4748 23.5036 16.329 23.0976 17.242 23.0229C18.8654 22.7878 20.3693 22.0338 21.5292 20.8736C22.6892 19.7133 23.4429 18.209 23.6779 16.5851C23.7354 15.6261 24.1467 14.7225 24.8324 14.0498C25.4828 13.4018 26.345 13.0106 27.2608 12.9481C28.7522 12.7428 30.1432 12.0796 31.2418 11.0499C32.4928 12.088 33.5525 13.3369 34.3735 14.74C34.3231 14.8081 34.2652 14.8705 34.201 14.9259C33.5676 15.5925 32.7145 16.0074 31.7991 16.094C30.174 16.3249 28.6678 17.0775 27.5071 18.2385C26.3465 19.3995 25.5941 20.9061 25.3632 22.5317C25.2696 23.4455 24.8632 24.2989 24.2127 24.9472C23.5621 25.5956 22.7075 25.999 21.7936 26.0891C20.1654 26.3223 18.6559 27.0748 17.4892 28.2345C16.3226 29.3944 15.5611 30.8996 15.3178 32.5269C15.2464 33.1756 15.0236 33.7985 14.6676 34.3454C13.3061 33.5367 12.0867 32.5099 11.0582 31.3057ZM22.0324 36.4294C20.6859 36.4308 19.3458 36.2431 18.0514 35.8719C18.4943 35.0462 18.7821 34.1464 18.9007 33.2171C18.9937 32.3053 19.3983 31.4536 20.0462 30.8055C20.694 30.1575 21.5456 29.7528 22.4571 29.6597C24.0829 29.4273 25.5899 28.6746 26.7524 27.514C27.9149 26.3536 28.6706 24.8477 28.9063 23.222C28.9993 22.3102 29.4039 21.4584 30.0517 20.8104C30.6996 20.1624 31.5511 19.7577 32.4626 19.6646C33.6861 19.5054 34.8523 19.0498 35.8597 18.3372C36.4192 20.4582 36.4854 22.6792 36.0535 24.8298C35.6216 26.9804 34.7027 29.0036 33.3678 30.7439C32.0328 32.4841 30.3171 33.8955 28.3521 34.8696C26.3872 35.8436 24.2254 36.3545 22.0324 36.363V36.4294Z" fill="#FF5C00"/>
</svg>
