<svg width="120" height="35" viewBox="0 0 110 25" fill="none" xmlns="http://www.w3.org/2000/svg">
    <g clip-path="url(#clip0_2613_22113)">
        <path d="M32.3233 0.00479663C29.0697 0.075031 25.8423 1.20127 23.3081 3.36976C23.1688 3.48893 23.0871 3.65391 23.0808 3.82813C23.0746 4.00236 23.1444 4.17169 23.2748 4.29891C23.4053 4.42614 23.5857 4.50081 23.7764 4.50651C23.9671 4.51222 24.1525 4.44838 24.2918 4.32923C28.8356 0.441251 35.8334 0.288262 40.5732 3.97557C45.3143 7.66287 46.2664 13.9965 42.7866 18.7122C39.308 23.4267 32.5206 25.0008 26.9996 22.3745C21.4774 19.7458 19.0036 13.7658 21.2433 8.4606C21.2775 8.38013 21.2941 8.2943 21.292 8.20798C21.29 8.12167 21.2693 8.03654 21.2313 7.95751C21.1932 7.87849 21.1385 7.80701 21.0702 7.74731C21.002 7.6876 20.9215 7.64081 20.8334 7.60952C20.7453 7.57823 20.6514 7.56309 20.5569 7.56497C20.4624 7.56685 20.3692 7.58577 20.2827 7.62054C20.1962 7.65531 20.1181 7.70531 20.0527 7.76767C19.9874 7.83004 19.9361 7.90353 19.9018 7.984C17.4031 13.9038 20.1767 20.6049 26.3368 23.5359C32.4956 26.4682 40.0997 24.7035 43.9807 19.4434C47.8617 14.1834 46.7951 7.08601 41.5056 2.97354C38.8622 0.916672 35.5796 -0.0666625 32.3246 0.00357184L32.3233 0.00479663Z" fill="currentColor"/>
        <path d="M22.6257 5.81166C22.6257 5.97798 22.5564 6.13759 22.4331 6.25519C22.3098 6.37279 22.1425 6.43876 21.9681 6.43876C21.7937 6.43876 21.6265 6.37279 21.5031 6.25519C21.3798 6.13759 21.3105 5.97798 21.3105 5.81166C21.3105 5.64535 21.3798 5.48589 21.5031 5.36829C21.6265 5.25069 21.7937 5.18457 21.9681 5.18457C22.1425 5.18457 22.3098 5.25069 22.4331 5.36829C22.5564 5.48589 22.6257 5.64535 22.6257 5.81166Z" fill="currentColor"/>
        <path d="M15.3228 4.81177H4.7372V10.3882H15.321V14.9059H4.7372V25H0V0.294128H15.321L15.3228 4.81177ZM2.07252 2.2706V23.0235H2.66375V12.9294H13.2475V12.3647H2.66467V2.8353H13.2484V2.2706H2.07252ZM54.5611 20.4823H65.1457V25H49.8257V0.294128H54.5629L54.5611 20.4823ZM51.8982 2.2706V23.0235H63.0751V22.4588H52.4904V2.2706H51.8982ZM87.9454 0.294128L84.5405 11.6941C84.4295 12.0471 84.2444 12.3647 83.9854 12.6471C84.2444 12.8941 84.4295 13.2471 84.5405 13.6L87.9454 25H83.0231L80.2104 15.5765L79.2852 14.9059H74.3259V25H69.5887V0.294128H74.3259V10.3882H79.2852L80.2104 9.71765L83.0231 0.294128H87.9454ZM84.5775 2.2706L81.9869 10.9177L79.9883 12.3647H72.2534V2.2706H71.6612V23.0235H72.2534V12.9294H79.9883L81.9869 14.3765L84.5775 23.0235H85.2067L82.542 14.1294C82.542 14.0941 82.468 14.0235 82.431 13.9882L80.5805 12.6471L82.431 11.3059C82.468 11.2706 82.542 11.2 82.542 11.1647L85.2067 2.2706H84.5775ZM97.0127 0.294128H105.34C105.969 0.294128 106.561 0.541187 107.005 0.964716L109.3 3.11766C109.744 3.54118 110.117 4.12354 109.966 4.70589V9.15295H105.229V5.65883L104.378 4.81177H98.0119L97.1237 5.65883V8.69412L97.8639 9.57647L106.413 11.4824C106.931 11.6235 107.375 11.9059 107.708 12.2941L109.448 14.4118C109.781 14.8 109.966 15.2941 109.966 15.7882V20.5882C109.966 21.1882 109.744 21.7529 109.3 22.1765L107.005 24.3294C106.561 24.7529 105.969 25 105.34 25H97.0127C96.3835 25 95.7914 24.7529 95.3472 24.3294L93.0897 22.1765C92.6456 21.7529 92.5373 21.1706 92.3865 20.5882V16.1412H97.1237V19.6353L98.0119 20.4823H104.378L105.229 19.6353V16.6L104.526 15.7176L95.9764 13.8118C95.4583 13.6706 94.9771 13.3882 94.6441 13L92.9046 10.8824C92.5715 10.4941 92.3865 10 92.3865 9.50589V4.70589C92.3865 4.10589 92.6456 3.54118 93.0897 3.11766L95.3472 0.964716C95.7914 0.541187 96.3835 0.294128 97.0127 0.294128ZM105.34 2.2706H97.0127C96.9386 2.2706 96.8646 2.34119 96.8276 2.37648L94.57 4.52942C94.533 4.56471 94.459 4.6353 94.459 4.70589V9.50589C94.459 9.54118 94.496 9.61177 94.533 9.64706L96.2725 11.7647C96.3095 11.8 96.3835 11.8706 96.4945 11.9059L105.71 13.9529L107.301 15.9294V20.4471L105.266 22.4588H97.1607L95.0512 20.4471V18.1176H94.459V20.5882C94.459 20.6588 94.533 20.7294 94.57 20.7647L96.8276 22.9176C96.8646 22.9529 96.9386 23.0235 97.0127 23.0235H105.34C105.414 23.0235 105.488 22.9529 105.525 22.9176L107.819 20.7647C107.856 20.7294 107.893 20.6588 107.893 20.5882V15.7882C107.893 15.7529 107.893 15.7176 107.819 15.6471L106.08 13.5294C106.043 13.4588 105.969 13.4235 105.858 13.3882L96.6796 11.3412L95.0512 9.4V4.84707L97.1607 2.8353H105.266L107.301 4.84707V7.17648H107.893V4.70589C107.893 4.6353 107.856 4.56471 107.819 4.52942L105.525 2.37648C105.488 2.34119 105.414 2.2706 105.34 2.2706Z" fill="currentColor"/>
        <path d="M28.7941 8.79212C28.8339 8.89121 28.9533 8.94075 29.0727 8.94075C29.1125 8.94075 29.1522 8.94075 29.192 8.92424C29.3512 8.87469 29.4109 8.72607 29.3512 8.59396L27.9187 5.9352C27.859 5.80309 27.6799 5.75354 27.5207 5.80309C27.3616 5.85263 27.3019 6.00125 27.3616 6.13337L28.7941 8.79212Z" fill="currentColor"/>
        <path d="M26.4863 9.70038C26.5659 9.70038 26.6654 9.66735 26.7251 9.6013C26.8246 9.50221 26.8047 9.33707 26.6853 9.2545L24.815 8.01595C24.6956 7.9499 24.4967 7.96641 24.3972 8.06549C24.2977 8.16458 24.3176 8.32972 24.437 8.41229L26.3072 9.65084C26.3669 9.68387 26.4266 9.70038 26.4863 9.70038Z" fill="currentColor"/>
        <path d="M35.9771 8.89119C36.0169 8.90771 36.0567 8.90771 36.0965 8.90771C36.2159 8.90771 36.3153 8.85816 36.375 8.75908L37.4892 6.74437C37.5489 6.61226 37.4892 6.48014 37.35 6.41409C37.1908 6.36455 37.0316 6.41409 36.952 6.52969L35.8378 8.5444C35.7582 8.67651 35.8179 8.82514 35.9771 8.89119Z" fill="currentColor"/>
        <path d="M40.2147 7.83432C40.0953 7.75175 39.8963 7.75175 39.7969 7.86735L38.3046 9.28755C38.2052 9.38664 38.2052 9.55178 38.3444 9.63435C38.4041 9.66737 38.4638 9.7004 38.5434 9.7004C38.623 9.7004 38.7026 9.66738 38.7623 9.61783L40.2545 8.18111C40.354 8.08203 40.354 7.91689 40.2147 7.83432Z" fill="currentColor"/>
        <path d="M32.5347 8.59395C32.5546 8.59395 32.5546 8.59395 32.5347 8.59395C32.7138 8.59395 32.8332 8.49486 32.8332 8.36275L32.9128 6.64529C32.9128 6.51318 32.7934 6.39758 32.6342 6.39758C32.4751 6.39758 32.3358 6.49667 32.3358 6.62878L32.2761 8.32972C32.2562 8.47835 32.3756 8.59395 32.5347 8.59395Z" fill="currentColor"/>
        <path d="M40.0557 14.3078C40.0358 14.2418 39.996 14.1922 39.9363 14.1592C39.8169 13.9941 39.5782 13.7629 39.1803 13.5482C39.24 13.4821 39.2996 13.4326 39.3195 13.3665V13.35C39.3394 13.3005 39.7175 11.9628 38.5436 10.972C37.688 10.2619 35.0816 9.71692 32.5747 9.71692C31.2217 9.71692 29.2918 9.88206 27.7796 10.6417C27.6006 10.7243 25.7303 11.6491 26.0089 13.6307C26.0287 13.7133 26.0486 13.7794 26.1083 13.8454C25.5313 14.1922 24.9543 14.6216 25.014 14.9519C25.0339 15.0179 25.0936 15.1996 25.3722 15.2821C25.4915 15.3152 25.6109 15.3317 25.7502 15.3317C26.0486 15.3317 26.2874 15.2491 26.4665 15.1831V15.2161C26.4864 15.3152 26.4864 15.4308 26.5262 15.5629C26.5063 15.5794 26.5063 15.6124 26.4864 15.6289C26.2277 15.728 25.9094 15.9097 25.8895 16.1739C25.8895 16.1904 25.8895 16.2234 25.8696 16.24C25.6905 17.2803 26.1083 17.9739 27.123 18.2712C28.0582 18.5519 29.7295 18.8987 32.117 18.8987C33.3108 18.8987 34.6837 18.8161 36.2356 18.5849C39.2598 18.1391 39.4986 17.6932 39.3991 16.4216C39.3991 16.339 39.3792 16.2565 39.3792 16.1574C39.3792 15.9922 39.2797 15.8601 39.1405 15.7776C39.041 15.7115 38.9216 15.6785 38.8022 15.662C39.0211 15.6455 39.2598 15.6124 39.4787 15.5629C39.5782 15.5464 39.6578 15.4803 39.6976 15.3977L40.0557 14.4895C40.0756 14.4399 40.0756 14.3904 40.0557 14.3243C40.0756 14.3243 40.0557 14.3078 40.0557 14.3078ZM27.3419 17.8088C26.4068 17.5281 26.367 16.9005 26.4665 16.3225C26.4665 16.2895 26.4864 16.2565 26.4864 16.24C26.4864 16.2234 26.5262 16.2069 26.5461 16.1739C26.6256 16.2234 26.8246 16.2895 27.0833 16.3721C27.123 16.3886 27.1628 16.3886 27.2026 16.4051C27.8194 16.5702 28.7744 16.7684 29.9483 16.9005C30.1274 17.1317 30.3463 17.3134 30.6248 17.3134C30.7243 17.3134 30.8039 17.2969 30.9034 17.2638C31.0426 17.2143 31.1421 17.1152 31.2018 17.0161C33.3705 17.1482 36.0167 16.9996 38.6033 16.1244C38.7027 16.1409 38.7624 16.1574 38.7823 16.1739C38.7823 16.273 38.8022 16.3556 38.8022 16.4381C38.8818 17.4125 38.9017 17.6767 36.1361 18.0895C31.6196 18.7666 28.6949 18.2051 27.3419 17.8088ZM28.098 11.0546C29.4907 10.3445 31.3013 10.1958 32.5747 10.1958C35.1015 10.1958 37.4692 10.7738 38.1258 11.3023C39.0211 12.0454 38.7823 13.0693 38.7624 13.1849C38.7425 13.2179 38.7027 13.2509 38.6431 13.2839C38.5635 13.3335 38.4242 13.383 38.265 13.4326C38.1456 13.4656 38.0064 13.5151 37.8472 13.5482C37.6084 13.5977 37.3498 13.6638 37.0513 13.7133C36.8922 13.7463 36.7131 13.7629 36.534 13.7959L36.1759 13.8454C36.0167 13.8619 35.8576 13.8785 35.6984 13.9115C35.5591 13.928 35.4198 13.9445 35.2607 13.961C35.1214 13.9775 35.002 13.9941 34.8627 13.9941C34.7235 14.0106 34.5842 14.0271 34.425 14.0271C34.2261 14.0436 34.047 14.0601 33.8281 14.0766C32.9726 14.1262 32.0375 14.1592 31.0625 14.1592C29.0729 14.1592 27.9189 14.0106 27.2822 13.8619C27.1032 13.8124 26.944 13.7629 26.8445 13.7298C26.6853 13.6638 26.6057 13.5977 26.6057 13.5482C26.367 11.8307 27.9985 11.0876 28.098 11.0546ZM29.5305 15.7611H29.3713L29.0729 15.6289C29.2918 15.5133 29.431 15.4638 29.4907 15.4308V15.5133C29.5106 15.5629 29.5106 15.662 29.5305 15.7611ZM36.7131 15.5629C36.6136 15.6785 36.5141 15.7445 36.3152 15.728C36.0167 15.695 36.0167 15.728 35.8775 15.6124C35.7979 15.5464 35.6586 15.4308 35.4994 15.3812C35.4994 15.3647 35.5193 15.3317 35.5193 15.3152C35.8775 15.3977 36.2754 15.4968 36.7131 15.5629ZM33.1914 15.8601L33.2511 15.7115C33.271 15.5959 33.5695 15.5794 33.6292 15.5794C33.9077 15.5794 34.2261 15.662 34.4449 15.7941C34.4648 15.8106 34.4847 15.8106 34.5046 15.8271C34.4847 15.8436 34.4648 15.8601 34.4449 15.8601C34.3454 15.9262 34.246 15.9757 34.1465 16.0418C33.848 16.1904 33.4302 16.2895 33.4302 16.2895C33.4302 16.2895 32.8333 16.4546 32.5349 16.2069C32.8333 16.2069 33.0721 16.0748 33.1914 15.8601ZM38.8619 14.1922C38.3048 14.2252 37.8074 14.2087 37.3896 14.1592C37.5886 14.1262 37.7676 14.0766 37.9467 14.0436C38.2053 13.9775 38.4441 13.9115 38.6232 13.8289C38.8619 13.928 39.0609 14.0436 39.1803 14.1592C39.0808 14.1757 38.9813 14.1922 38.8619 14.1922ZM26.5858 14.1757C26.8644 14.3078 27.2623 14.4069 27.7597 14.4895L27.4016 14.9849C27.322 15.1005 27.3618 15.2491 27.5011 15.3317C27.5409 15.3482 27.6006 15.3647 27.6603 15.3647C27.7597 15.3647 27.8592 15.3152 27.9189 15.2491L28.3964 14.5886C29.0729 14.6546 29.9085 14.6876 30.8636 14.7042L30.9432 15.084C30.9631 15.1996 31.1023 15.2821 31.2416 15.2821H31.3013C31.4605 15.2491 31.5599 15.1335 31.54 14.9849L31.4804 14.6876C32.1966 14.6711 33.0721 14.6546 33.9674 14.5886C34.1266 14.572 34.2659 14.572 34.425 14.5555C34.5046 14.5555 34.5643 14.539 34.6439 14.539C34.7434 14.6381 34.823 14.7537 34.8826 14.8528C34.9423 14.9519 34.9622 15.0675 34.9622 15.15V15.2491C34.9423 15.3812 34.8627 15.4473 34.8627 15.4473C34.8627 15.4473 34.8428 15.4473 34.8428 15.4308C34.5245 15.2326 34.0868 15.117 33.669 15.117C33.1517 15.117 32.7935 15.3152 32.7139 15.6455C32.7139 15.6785 32.694 15.7445 32.5349 15.7445C32.3757 15.7445 32.0971 15.662 31.8783 15.4803C31.7788 15.3977 31.6594 15.3482 31.54 15.3482C31.3013 15.3482 31.1819 15.4803 31.1023 15.6785C31.0824 15.728 31.0625 15.7776 31.0426 15.8436L30.9829 16.0913C30.9432 16.339 30.8437 16.7684 30.6845 16.851C30.5253 16.8014 30.2667 16.273 30.1871 15.8271C30.1871 15.8106 30.1871 15.7776 30.1672 15.7611C30.1473 15.6785 30.1473 15.6124 30.1473 15.5299C30.1473 15.0014 29.7693 14.9353 29.6101 14.9353C29.4111 14.9353 29.1127 15.0014 28.4163 15.4473C28.2969 15.5133 28.1776 15.5959 28.0383 15.695C27.9985 15.728 27.9388 15.7611 27.899 15.7776C27.6603 15.9262 27.521 15.9427 27.4613 15.9427C27.3817 15.9427 27.322 15.8767 27.2623 15.7776L27.2026 15.6289L27.1429 15.3812C27.123 15.2987 27.123 15.2326 27.123 15.1831C27.123 15.1005 27.1032 15.0344 27.1032 14.9849C27.0634 14.7372 26.8445 14.6546 26.6853 14.6546C26.5659 14.6546 26.4466 14.6876 26.3073 14.7372C26.1282 14.7867 25.9293 14.8693 25.7303 14.8363C25.8099 14.6711 26.1879 14.4069 26.5858 14.1757ZM39.2002 15.117C39.0211 15.15 38.842 15.1665 38.6829 15.1831C38.2053 15.2161 37.7278 15.1996 37.2901 15.15C36.5937 15.0675 35.9769 14.9188 35.4795 14.7702C35.4397 14.6711 35.3999 14.572 35.3204 14.473C35.579 14.4399 35.8377 14.4234 36.0963 14.3904C36.6136 14.572 37.3299 14.7372 38.2849 14.7372C38.6232 14.7372 39.0012 14.7207 39.3991 14.6711L39.2002 15.117Z" fill="currentColor"/>
    </g>
    <defs>
        <clipPath id="clip0_2613_22113">
            <rect width="110" height="25" fill="white"/>
        </clipPath>
    </defs>
</svg>
