<svg width="65" height="19" viewBox="0 0 65 19" fill="none" xmlns="http://www.w3.org/2000/svg">
<path d="M0 9.47354C0 7.63881 0.404916 6.00696 1.21475 4.57799C2.02458 3.13138 3.14935 2.01114 4.58905 1.21727C6.04675 0.405757 7.69341 0 9.52903 0C11.7786 0 13.7042 0.582173 15.3058 1.74652C16.9075 2.91086 17.9783 4.49861 18.5182 6.50975H13.4432C13.0653 5.73352 12.5254 5.14253 11.8236 4.73677C11.1397 4.33101 10.3569 4.12813 9.47504 4.12813C8.05333 4.12813 6.90157 4.61328 6.01975 5.58357C5.13794 6.55385 4.69703 7.85051 4.69703 9.47354C4.69703 11.0966 5.13794 12.3932 6.01975 13.3635C6.90157 14.3338 8.05333 14.8189 9.47504 14.8189C10.3569 14.8189 11.1397 14.6161 11.8236 14.2103C12.5254 13.8045 13.0653 13.2136 13.4432 12.4373H18.5182C17.9783 14.4485 16.9075 16.0362 15.3058 17.2006C13.7042 18.3473 11.7786 18.9206 9.52903 18.9206C7.69341 18.9206 6.04675 18.5237 4.58905 17.7298C3.14935 16.9183 2.02458 15.7981 1.21475 14.3691C0.404916 12.9401 0 11.3083 0 9.47354Z" fill="#19191C"/>
<path d="M26.5819 19C25.1062 19 23.7745 18.6913 22.5867 18.0738C21.417 17.4564 20.4902 16.5743 19.8063 15.4276C19.1404 14.2809 18.8075 12.9401 18.8075 11.4053C18.8075 9.88811 19.1494 8.55618 19.8333 7.40947C20.5172 6.24513 21.453 5.35422 22.6407 4.73677C23.8285 4.11931 25.1602 3.81058 26.6359 3.81058C28.1116 3.81058 29.4433 4.11931 30.6311 4.73677C31.8188 5.35422 32.7546 6.24513 33.4385 7.40947C34.1223 8.55618 34.4643 9.88811 34.4643 11.4053C34.4643 12.9225 34.1133 14.2632 33.4115 15.4276C32.7276 16.5743 31.7828 17.4564 30.5771 18.0738C29.3893 18.6913 28.0576 19 26.5819 19ZM26.5819 15.0836C27.4637 15.0836 28.2106 14.766 28.8224 14.1309C29.4523 13.4958 29.7672 12.5873 29.7672 11.4053C29.7672 10.2233 29.4613 9.31476 28.8494 8.67966C28.2555 8.04457 27.5177 7.72702 26.6359 7.72702C25.7361 7.72702 24.9892 8.04457 24.3953 8.67966C23.8015 9.29712 23.5045 10.2057 23.5045 11.4053C23.5045 12.5873 23.7925 13.4958 24.3684 14.1309C24.9622 14.766 25.7001 15.0836 26.5819 15.0836Z" fill="#19191C"/>
<path d="M34.3757 11.4053C34.3757 9.87047 34.6906 8.52971 35.3205 7.38301C35.9684 6.2363 36.8592 5.35422 37.9929 4.73677C39.1447 4.11931 40.4584 3.81058 41.9341 3.81058C43.8237 3.81058 45.3984 4.29573 46.6581 5.26602C47.9359 6.2363 48.7727 7.60353 49.1686 9.36769H44.2556C43.8417 8.23863 43.0409 7.6741 41.8531 7.6741C41.0073 7.6741 40.3325 8.00046 39.8286 8.6532C39.3247 9.2883 39.0727 10.2057 39.0727 11.4053C39.0727 12.6049 39.3247 13.5311 39.8286 14.1838C40.3325 14.8189 41.0073 15.1365 41.8531 15.1365C43.0409 15.1365 43.8417 14.572 44.2556 13.4429H49.1686C48.7727 15.1718 47.9359 16.5302 46.6581 17.5181C45.3804 18.506 43.8057 19 41.9341 19C40.4584 19 39.1447 18.6913 37.9929 18.0738C36.8592 17.4564 35.9684 16.5743 35.3205 15.4276C34.6906 14.2809 34.3757 12.9401 34.3757 11.4053Z" fill="#19191C"/>
<path d="M49.1003 11.3788C49.1003 9.86165 49.3882 8.52971 49.9641 7.38301C50.558 6.2363 51.3588 5.35422 52.3666 4.73677C53.3744 4.11931 54.4992 3.81058 55.7409 3.81058C56.8027 3.81058 57.7295 4.02228 58.5213 4.44568C59.3312 4.86908 59.952 5.42479 60.3839 6.11281V4.02228H65V18.7883H60.3839V16.6978C59.934 17.3858 59.3042 17.9415 58.4943 18.3649C57.7025 18.7883 56.7757 19 55.7139 19C54.4902 19 53.3744 18.6913 52.3666 18.0738C51.3588 17.4387 50.558 16.5478 49.9641 15.4011C49.3882 14.2368 49.1003 12.896 49.1003 11.3788ZM60.3839 11.4053C60.3839 10.2762 60.06 9.38533 59.4122 8.73259C58.7823 8.07985 58.0084 7.75348 57.0906 7.75348C56.1728 7.75348 55.39 8.07985 54.7421 8.73259C54.1123 9.36769 53.7973 10.2498 53.7973 11.3788C53.7973 12.5079 54.1123 13.4076 54.7421 14.078C55.39 14.7307 56.1728 15.0571 57.0906 15.0571C58.0084 15.0571 58.7823 14.7307 59.4122 14.078C60.06 13.4253 60.3839 12.5344 60.3839 11.4053Z" fill="#19191C"/>
</svg>
