<svg width="24" height="24" viewBox="0 0 24 24" fill="none" xmlns="http://www.w3.org/2000/svg">
<path d="M15.7454 4.50126C16.849 4.50126 17.4009 4.50126 17.8279 4.74202C18.1269 4.91057 18.3845 5.16724 18.5597 5.47099C18.81 5.90485 18.835 6.47099 18.8851 7.60325C19.0487 11.3011 19.0341 14.009 18.8636 17.7532C18.8169 18.7779 18.7936 19.2902 18.5691 19.7046C18.4149 19.9894 18.1743 20.2504 17.9075 20.4225C17.5194 20.6727 17.0414 20.7161 16.0852 20.8029C13.1731 21.0673 10.8447 21.0651 7.91978 20.7999C6.96461 20.7134 6.48703 20.6701 6.09939 20.4206C5.83297 20.2492 5.59239 19.9888 5.43791 19.7048C5.21315 19.2916 5.18868 18.7815 5.13973 17.7612C4.96088 14.0326 4.95209 11.3236 5.12278 7.59999C5.17467 6.46809 5.20061 5.90214 5.45104 5.46906C5.62645 5.16572 5.88383 4.90977 6.18267 4.7415C6.60933 4.50126 7.16069 4.50126 8.2634 4.50126M9.60724 6.00251H14.4045C15.1994 6.00251 15.8437 5.33037 15.8437 4.50125C15.8437 3.67213 15.1994 3 14.4045 3H9.60724C8.8124 3 8.16805 3.67213 8.16805 4.50125C8.16805 5.33037 8.8124 6.00251 9.60724 6.00251Z" stroke="#FF5C00" stroke-width="1.5"/>
</svg>
