<svg width="62" height="48" viewBox="0 0 62 48" fill="none" xmlns="http://www.w3.org/2000/svg">
    <path d="M37.7451 36.5372H24.2544V12.2933H37.7451V36.5372Z" fill="#FF5F00"/>
    <path d="M25.1111 24.4164C25.109 22.0817 25.6382 19.7771 26.6584 17.6771C27.6787 15.5772 29.1634 13.7369 31 12.2955C28.7256 10.5081 25.9942 9.39656 23.118 9.08798C20.2418 8.7794 17.3368 9.2862 14.735 10.5505C12.1332 11.8147 9.93957 13.7854 8.40476 16.2374C6.86996 18.6894 6.05591 21.5237 6.05566 24.4164C6.05622 27.3087 6.87036 30.1426 8.40506 32.5942C9.93977 35.0458 12.1331 37.0162 14.7346 38.2804C17.336 39.5446 20.2406 40.0515 23.1165 39.7433C25.9923 39.435 28.7235 38.324 30.9979 36.5372C29.1619 35.0955 27.6778 33.255 26.6579 31.1551C25.638 29.0552 25.1091 26.7508 25.1111 24.4164Z" fill="#EB001B"/>
    <path d="M55.9443 24.4164C55.9441 27.3091 55.1301 30.1434 53.5952 32.5953C52.0604 35.0473 49.8668 37.018 47.265 38.2823C44.6632 39.5465 41.7582 40.0533 38.882 39.7447C36.0058 39.4362 33.2744 38.3247 31 36.5372C34.5857 33.7144 36.8889 29.3346 36.8889 24.4164C36.8889 19.4982 34.5857 15.1184 31 12.2955C33.2744 10.5081 36.0058 9.39656 38.882 9.08798C41.7582 8.7794 44.6632 9.2862 47.265 10.5505C49.8668 11.8147 52.0604 13.7854 53.5952 16.2374C55.1301 18.6894 55.9441 21.5237 55.9443 24.4164Z" fill="#F79E1B"/>
</svg>
