<svg width="64" height="48" viewBox="0 0 64 48" fill="none" xmlns="http://www.w3.org/2000/svg">
<path d="M43.2443 14H28.2216C26.3197 14 23.9642 15.1657 22.8585 16.6534L18.9376 21.93L17.1363 24.3552C16.9546 24.608 16.9531 25.0659 17.1408 25.3143L18.9255 27.7179L22.86 33.0147C23.9642 34.501 26.3182 35.6667 28.2216 35.6667H43.2443C45.316 35.6667 47 34.046 47 32.0556V17.6111C47 15.6207 45.316 14 43.2443 14ZM39.7996 28.1454C39.9391 28.2796 40.0497 28.4388 40.1252 28.614C40.2007 28.7892 40.2395 28.977 40.2395 29.1667C40.2395 29.3563 40.2007 29.5441 40.1252 29.7193C40.0497 29.8946 39.9391 30.0538 39.7996 30.1879C39.6601 30.322 39.4945 30.4284 39.3123 30.501C39.1301 30.5735 38.9348 30.6109 38.7375 30.6109C38.5403 30.6109 38.3449 30.5735 38.1627 30.501C37.9805 30.4284 37.8149 30.322 37.6754 30.1879L34.2307 26.8758L30.786 30.1879C30.6468 30.3225 30.4813 30.4293 30.299 30.5022C30.1167 30.5751 29.9213 30.6126 29.7239 30.6126C29.5265 30.6126 29.331 30.5751 29.1487 30.5022C28.9664 30.4293 28.801 30.3225 28.6618 30.1879C28.5221 30.0539 28.4114 29.8947 28.3358 29.7194C28.2602 29.5442 28.2213 29.3564 28.2213 29.1667C28.2213 28.977 28.2602 28.7891 28.3358 28.6139C28.4114 28.4387 28.5221 28.2795 28.6618 28.1454L32.1065 24.8333L28.6618 21.5212C28.5223 21.3871 28.4116 21.2279 28.3362 21.0527C28.2607 20.8775 28.2218 20.6897 28.2218 20.5C28.2218 20.3103 28.2607 20.1225 28.3362 19.9473C28.4116 19.7721 28.5223 19.6129 28.6618 19.4788C28.8012 19.3447 28.9668 19.2383 29.1491 19.1657C29.3313 19.0931 29.5266 19.0558 29.7239 19.0558C29.9211 19.0558 30.1164 19.0931 30.2987 19.1657C30.4809 19.2383 30.6465 19.3447 30.786 19.4788L34.2307 22.7909L37.6754 19.4788C37.8149 19.3447 37.9805 19.2383 38.1627 19.1657C38.3449 19.0931 38.5403 19.0558 38.7375 19.0558C38.9348 19.0558 39.1301 19.0931 39.3123 19.1657C39.4945 19.2383 39.6601 19.3447 39.7996 19.4788C39.9391 19.6129 40.0497 19.7721 40.1252 19.9473C40.2007 20.1225 40.2395 20.3103 40.2395 20.5C40.2395 20.6897 40.2007 20.8775 40.1252 21.0527C40.0497 21.2279 39.9391 21.3871 39.7996 21.5212L36.3549 24.8333L39.7996 28.1454Z" fill="white"/>
</svg>
