<svg width="35" height="35" viewBox="0 0 24 24" fill="none" xmlns="http://www.w3.org/2000/svg">
    <path d="M18.6181 14.5C18.7435 14.5 18.838 14.6144 18.8109 14.7368C18.0177 18.32 14.8218 21 11 21C6.58172 21 3 17.4183 3 13C3 9.17816 5.67998 5.98225 9.26319 5.18905C9.38562 5.16195 9.5 5.2565 9.5 5.3819V12.3073C9.5 13.5183 10.4817 14.5 11.6927 14.5H18.6181Z" fill="currentColor"/>
    <path d="M19.4337 13C20.3652 13 21.1347 12.2397 20.9801 11.3211C20.8538 10.5701 20.6428 9.83398 20.35 9.1271C19.8414 7.89924 19.096 6.78357 18.1562 5.84381C17.2164 4.90404 16.1008 4.15858 14.8729 3.64999C14.166 3.35719 13.4299 3.14619 12.6789 3.01986C11.7603 2.86531 11 3.63479 11 4.56635V11.3133C11 12.2448 11.7552 13 12.6867 13H19.4337Z" fill="currentColor"/>
</svg>
