<svg width="25" height="24" viewBox="0 0 25 24" fill="none" xmlns="http://www.w3.org/2000/svg">
<path d="M4.76588 6.98274C4.86239 5.93961 5.69543 5.11779 6.73865 5.02788C11.0269 4.65829 14.0044 4.65722 18.2583 5.0256C19.3066 5.11639 20.1407 5.94647 20.2335 6.99512C20.6079 11.2276 20.5734 14.2161 20.2203 18.484C20.1326 19.5444 19.2928 20.3889 18.2331 20.4787C13.9667 20.8405 10.9928 20.8397 6.78078 20.4805C5.71856 20.3899 4.87877 19.5409 4.792 18.4778C4.44716 14.253 4.37042 11.2572 4.76588 6.98274Z" stroke="#FF5C00" stroke-width="1.5"/>
<path d="M8.5 3.25V6.75" stroke="#FF5C00" stroke-width="1.5" stroke-linecap="round"/>
<path d="M16.5 3.25V6.75" stroke="#FF5C00" stroke-width="1.5" stroke-linecap="round"/>
<path d="M5 9.75H20" stroke="#FF5C00" stroke-width="1.5" stroke-linecap="round"/>
<path d="M8.5 13.25H8.51" stroke="#FF5C00" stroke-width="2" stroke-linecap="round"/>
<path d="M8.5 16.75H8.51" stroke="#FF5C00" stroke-width="2" stroke-linecap="round"/>
<path d="M12.5098 13.25H12.5198" stroke="#FF5C00" stroke-width="2" stroke-linecap="round"/>
<path d="M12.5098 16.75H12.5198" stroke="#FF5C00" stroke-width="2" stroke-linecap="round"/>
<path d="M16.5195 13.25H16.5295" stroke="#FF5C00" stroke-width="2" stroke-linecap="round"/>
<path d="M16.5195 16.75H16.5295" stroke="#FF5C00" stroke-width="2" stroke-linecap="round"/>
</svg>
