<svg width="62" height="48" viewBox="0 0 62 48" fill="none" xmlns="http://www.w3.org/2000/svg">
    <path d="M52.5001 33.95H9.5001C8.3176 33.95 7.3501 32.9825 7.3501 31.8V8.15C7.3501 6.9675 8.3176 6 9.5001 6H52.5001C53.6826 6 54.6501 6.9675 54.6501 8.15V31.8C54.6501 32.9825 53.6826 33.95 52.5001 33.95Z" fill="#19AD58"/>
    <path d="M47.1252 25.35C44.6527 25.35 42.3952 26.5325 41.1052 28.4675C40.0302 27.93 38.8477 27.5 37.4502 27.5C33.6877 27.5 30.5702 30.295 30.0327 33.95H52.5002C53.5752 33.95 54.4352 33.1975 54.6502 32.1225C54.2202 28.36 50.9952 25.35 47.1252 25.35Z" fill="#0D8944"/>
    <path d="M48.2 31.8H13.8C13.8 29.435 11.865 27.5 9.5 27.5V12.45C11.865 12.45 13.8 10.515 13.8 8.15002H48.2C48.2 10.515 50.135 12.45 52.5 12.45V27.5C50.135 27.5 48.2 29.435 48.2 31.8Z" fill="#47CA57"/>
    <path d="M47.1252 25.35C44.6527 25.35 42.3952 26.5325 41.1052 28.4675C40.0302 27.93 38.8477 27.5 37.4502 27.5C34.4402 27.5 31.8602 29.22 30.6777 31.8H48.2002C48.2002 29.435 50.0277 27.6075 52.3927 27.5C50.9952 26.21 49.1677 25.35 47.1252 25.35Z" fill="#0E9347"/>
    <path d="M31.0004 29.6499C35.75 29.6499 39.6004 25.3183 39.6004 19.9749C39.6004 14.6316 35.75 10.2999 31.0004 10.2999C26.2507 10.2999 22.4004 14.6316 22.4004 19.9749C22.4004 25.3183 26.2507 29.6499 31.0004 29.6499Z" fill="#19AD58"/>
    <path d="M18.1002 22.1251C19.2876 22.1251 20.2502 21.1625 20.2502 19.9751C20.2502 18.7877 19.2876 17.8251 18.1002 17.8251C16.9128 17.8251 15.9502 18.7877 15.9502 19.9751C15.9502 21.1625 16.9128 22.1251 18.1002 22.1251Z" fill="#19AD58"/>
    <path d="M43.9 22.1251C45.0874 22.1251 46.05 21.1625 46.05 19.9751C46.05 18.7877 45.0874 17.8251 43.9 17.8251C42.7126 17.8251 41.75 18.7877 41.75 19.9751C41.75 21.1625 42.7126 22.1251 43.9 22.1251Z" fill="#19AD58"/>
    <path d="M32.0752 18.9H29.9252C29.2802 18.9 28.8502 18.47 28.8502 17.825C28.8502 17.18 29.2802 16.75 29.9252 16.75H33.1502C33.7952 16.75 34.2252 16.32 34.2252 15.675C34.2252 15.03 33.7952 14.6 33.1502 14.6H32.0752C32.0752 13.955 31.6452 13.525 31.0002 13.525C30.3552 13.525 29.9252 13.955 29.9252 14.6C28.0977 14.6 26.7002 15.9975 26.7002 17.825C26.7002 19.6525 28.0977 21.05 29.9252 21.05H32.0752C32.7202 21.05 33.1502 21.48 33.1502 22.125C33.1502 22.77 32.7202 23.2 32.0752 23.2H28.8502C28.2052 23.2 27.7752 23.63 27.7752 24.275C27.7752 24.92 28.2052 25.35 28.8502 25.35H29.9252C29.9252 25.995 30.3552 26.425 31.0002 26.425C31.6452 26.425 32.0752 25.995 32.0752 25.35C33.9027 25.35 35.3002 23.9525 35.3002 22.125C35.3002 20.2975 33.9027 18.9 32.0752 18.9Z" fill="#55E466"/>
    <path d="M35.2999 42.55C39.4558 42.55 42.8249 39.1809 42.8249 35.025C42.8249 30.8691 39.4558 27.5 35.2999 27.5C31.144 27.5 27.7749 30.8691 27.7749 35.025C27.7749 39.1809 31.144 42.55 35.2999 42.55Z" fill="#FFCA5D"/>
    <path d="M44.9752 40.4C49.1311 40.4 52.5002 37.0309 52.5002 32.875C52.5002 28.719 49.1311 25.35 44.9752 25.35C40.8193 25.35 37.4502 28.719 37.4502 32.875C37.4502 37.0309 40.8193 40.4 44.9752 40.4Z" fill="#F6B545"/>
    <path d="M44.9752 25.35C40.7827 25.35 37.4502 28.6825 37.4502 32.875C37.4502 37.0675 40.7827 40.4 44.9752 40.4C49.1677 40.4 52.5002 37.0675 52.5002 32.875C52.5002 28.6825 49.1677 25.35 44.9752 25.35ZM44.9752 38.25C41.9652 38.25 39.6002 35.885 39.6002 32.875C39.6002 29.865 41.9652 27.5 44.9752 27.5C47.9852 27.5 50.3502 29.865 50.3502 32.875C50.3502 35.885 47.9852 38.25 44.9752 38.25Z" fill="#FFCB5B"/>
    <path d="M44.9751 40.2925C49.1676 40.4 52.5001 36.96 52.5001 32.875H52.3926C51.8551 32.875 51.4251 33.305 51.3176 33.8425C51.1026 35.3475 50.3501 36.745 49.2751 37.7125C48.4151 38.5725 47.2326 39.11 45.9426 39.325C45.4051 39.325 44.9751 39.755 44.9751 40.2925Z" fill="#F6B545"/>
    <path d="M44.9752 25.4574C40.7827 25.3499 37.4502 28.7899 37.4502 32.8749H37.5577C38.0952 32.8749 38.5252 32.4449 38.6327 31.9074C38.8477 30.4024 39.6002 29.0049 40.6752 28.0374C41.5352 27.1774 42.7177 26.6399 44.0077 26.4249C44.5452 26.4249 44.9752 25.9949 44.9752 25.4574Z" fill="#FFE27A"/>
    <path d="M40.3526 33.6275C40.3526 30.6175 42.7176 28.2525 45.7276 28.2525C47.0176 28.2525 48.2001 28.6825 49.1676 29.5425C48.0926 28.2525 46.6951 27.5 44.9751 27.5C41.9651 27.5 39.6001 29.865 39.6001 32.875C39.6001 34.595 40.3526 35.9925 41.5351 36.96C40.7826 36.1 40.3526 34.9175 40.3526 33.6275Z" fill="#F19920"/>
    <path d="M48.2001 36.2075C48.0926 36.2075 47.9851 36.2075 47.8776 36.1C47.6626 35.885 47.6626 35.5625 47.8776 35.3475C48.5226 34.7025 48.8451 33.735 48.8451 32.875C48.8451 32.5525 49.0601 32.3375 49.3826 32.3375C49.7051 32.3375 49.9201 32.5525 49.9201 32.875C49.9201 34.0575 49.4901 35.24 48.7376 36.1C48.5226 36.2075 48.3076 36.2075 48.2001 36.2075Z" fill="#FFCB5B"/>
    <path d="M44.9749 36.1C44.3299 36.1 43.8999 35.67 43.8999 35.025V30.725C43.8999 30.08 44.3299 29.65 44.9749 29.65C45.6199 29.65 46.0499 30.08 46.0499 30.725V35.025C46.0499 35.67 45.6199 36.1 44.9749 36.1Z" fill="#F19920"/>
    <path d="M39.7076 27.5C41.7501 28.79 43.3626 30.94 43.7926 33.4125C43.9911 34.8841 44.0494 38.2446 42.6941 39.9137C39.6923 38.9276 37.5576 36.123 37.5576 32.7675C37.5576 30.725 38.4176 28.8975 39.7076 27.5Z" fill="#F19920"/>
    <path d="M41.5351 36.9601C40.7826 35.9926 40.2451 34.8101 40.2451 33.5201C40.2451 32.0151 40.8901 30.6176 41.9651 29.6501C41.7501 29.3276 41.5351 29.1126 41.3201 28.8976C40.2451 29.8651 39.6001 31.2626 39.6001 32.8751C39.6001 34.5951 40.3526 35.9926 41.5351 36.9601ZM43.9001 33.5201V35.0251C43.9001 35.6701 44.3301 36.1001 44.9751 36.1001C45.6201 36.1001 46.0501 35.6701 46.0501 35.0251V34.8101C45.4051 34.2726 44.6526 33.8426 43.9001 33.5201Z" fill="#E78825"/>
    <path d="M48.6301 38.25C47.8776 38.7875 46.9101 39.11 45.9426 39.325C45.4051 39.4325 44.9751 39.8625 44.9751 40.4C46.4801 40.4 47.7701 39.97 48.9526 39.2175L48.6301 38.25Z" fill="#F19920"/>
    <path d="M39.6002 27.6074C38.3102 29.0049 37.4502 30.8324 37.4502 32.8749H37.5577C38.0952 32.8749 38.5252 32.4449 38.6327 31.9074C38.8477 30.4024 39.6002 29.1124 40.5677 28.1449C40.2452 28.0374 39.9227 27.8224 39.6002 27.6074Z" fill="#FFCB5B"/>
    <path d="M35.2999 42.55C39.4558 42.55 42.8249 39.1809 42.8249 35.025C42.8249 30.8691 39.4558 27.5 35.2999 27.5C31.144 27.5 27.7749 30.8691 27.7749 35.025C27.7749 39.1809 31.144 42.55 35.2999 42.55Z" fill="#F6B545"/>
    <path d="M35.2999 27.5C31.1074 27.5 27.7749 30.8325 27.7749 35.025C27.7749 39.2175 31.1074 42.55 35.2999 42.55C39.4924 42.55 42.8249 39.2175 42.8249 35.025C42.8249 30.8325 39.4924 27.5 35.2999 27.5ZM35.2999 40.4C32.2899 40.4 29.9249 38.035 29.9249 35.025C29.9249 32.015 32.2899 29.65 35.2999 29.65C38.3099 29.65 40.6749 32.015 40.6749 35.025C40.6749 38.035 38.3099 40.4 35.2999 40.4Z" fill="#FFCB5B"/>
    <path d="M35.3003 42.4425C39.4928 42.55 42.8253 39.11 42.8253 35.025H42.7178C42.1803 35.025 41.7503 35.455 41.6428 35.9925C41.4278 37.4975 40.6753 38.895 39.6003 39.8625C38.7403 40.7225 37.5578 41.26 36.2678 41.475C35.7303 41.475 35.3003 41.905 35.3003 42.4425Z" fill="#F6B545"/>
    <path d="M35.2999 27.6074C31.1074 27.4999 27.7749 30.9399 27.7749 35.0249H27.8824C28.4199 35.0249 28.8499 34.5949 28.9574 34.0574C29.1724 32.5524 29.9249 31.1549 30.9999 30.1874C31.8599 29.3274 33.0424 28.7899 34.3324 28.5749C34.8699 28.5749 35.2999 28.1449 35.2999 27.6074Z" fill="#FFE27A"/>
    <path d="M30.6778 35.7775C30.6778 32.7675 33.0428 30.4025 36.0528 30.4025C37.3428 30.4025 38.5253 30.8325 39.4928 31.6925C38.4178 30.4025 37.0203 29.65 35.3003 29.65C32.2903 29.65 29.9253 32.015 29.9253 35.025C29.9253 36.745 30.6778 38.1425 31.8603 39.11C31.1078 38.25 30.6778 37.0675 30.6778 35.7775Z" fill="#F19920"/>
    <path d="M38.5253 38.3575C38.4178 38.3575 38.3103 38.3575 38.2028 38.25C37.9878 38.035 37.9878 37.7125 38.2028 37.4975C38.8478 36.8525 39.1703 35.885 39.1703 35.025C39.1703 34.7025 39.3853 34.4875 39.7078 34.4875C40.0303 34.4875 40.2453 34.7025 40.2453 35.025C40.2453 36.2075 39.8153 37.39 39.0628 38.25C38.8478 38.3575 38.6328 38.3575 38.5253 38.3575Z" fill="#FFCB5B"/>
    <path d="M35.3001 38.25C34.6551 38.25 34.2251 37.82 34.2251 37.175V32.875C34.2251 32.23 34.6551 31.8 35.3001 31.8C35.9451 31.8 36.3751 32.23 36.3751 32.875V37.175C36.3751 37.82 35.9451 38.25 35.3001 38.25Z" fill="#F19920"/>
</svg>
