<svg width="24" height="24" viewBox="0 0 24 24" fill="none" xmlns="http://www.w3.org/2000/svg">
<path d="M5.56588 17.7979C4.37088 17.7299 3.42612 17.0932 3.3285 16.2959C2.94056 13.1273 2.85423 11.8804 3.29912 8.67455C3.40769 7.89221 4.34486 7.27584 5.51848 7.20841C6.20614 7.1689 6.86383 7.135 7.5 7.10673M18.4497 17.7966C19.6418 17.7292 20.5866 17.0958 20.6853 16.3005C21.0825 13.0996 21.1214 11.8582 20.7002 8.68384C20.5958 7.89735 19.6574 7.27479 18.4781 7.2067C17.7921 7.1671 17.1356 7.13319 16.5 7.10497M7.5 7.10673V5.5C7.5 4.11929 8.61929 3 10 3H14C15.3807 3 16.5 4.11929 16.5 5.5V7.10497M7.5 7.10673C10.6871 6.96506 13.3338 6.96438 16.5 7.10497M7.5 14H8.5M8.5 14L7.90765 18.1465C7.6925 19.6525 8.86115 21 10.3825 21H13.6175C15.1388 21 16.3075 19.6525 16.0924 18.1464L15.5 14M8.5 14H15.5M15.5 14H16.5M14.5 10.5H16.5" stroke="currentColor" stroke-width="1.5" stroke-linecap="round"/>
</svg>
