<!DOCTYPE svg PUBLIC "-//W3C//DTD SVG 1.1//EN" "http://www.w3.org/Graphics/SVG/1.1/DTD/svg11.dtd">

<!-- Uploaded to: SVG Repo, www.svgrepo.com, Transformed by: SVG Repo Mixer Tools -->
<svg fill="currentColor" height="25px" width="25px" version="1.1" id="Capa_1" xmlns="http://www.w3.org/2000/svg" xmlns:xlink="http://www.w3.org/1999/xlink" viewBox="0 0 384.97 384.97" xml:space="preserve" stroke="#FF5C00">

<g id="SVGRepo_bgCarrier" stroke-width="0"/>

<g id="SVGRepo_tracerCarrier" stroke-linecap="round" stroke-linejoin="round"/>

<g id="SVGRepo_iconCarrier"> <g> <g id="More_Horizontal"> <path d="M48.121,144.364C21.546,144.364,0,165.91,0,192.485s21.546,48.121,48.121,48.121s48.121-21.546,48.121-48.121 S74.696,144.364,48.121,144.364z M48.121,216.545c-13.293,0-24.061-10.767-24.061-24.061s10.767-24.061,24.061-24.061 s24.061,10.779,24.061,24.061C72.182,205.778,61.415,216.545,48.121,216.545z"/> <path d="M336.848,144.364c-26.575,0-48.121,21.546-48.121,48.121s21.546,48.121,48.121,48.121 c26.575,0,48.121-21.546,48.121-48.121S363.423,144.364,336.848,144.364z M336.848,216.545c-13.293,0-24.061-10.767-24.061-24.061 s10.767-24.061,24.061-24.061c13.281,0,24.061,10.779,24.061,24.061C360.909,205.778,350.13,216.545,336.848,216.545z"/> <path d="M192.485,144.364c-26.575,0-48.121,21.546-48.121,48.121s21.546,48.121,48.121,48.121s48.121-21.546,48.121-48.121 S219.06,144.364,192.485,144.364z M192.485,216.545c-13.293,0-24.061-10.767-24.061-24.061s10.767-24.061,24.061-24.061 c13.281,0,24.061,10.779,24.061,24.061C216.545,205.778,205.766,216.545,192.485,216.545z"/> </g> <g> </g> <g> </g> <g> </g> <g> </g> <g> </g> <g> </g> </g> </g>

</svg>