<svg width="24" height="24" viewBox="0 0 24 24" fill="none" xmlns="http://www.w3.org/2000/svg">
    <path d="M15.3041 16.4917L15.2849 21.5813C15.2845 21.6952 15.3305 21.8038 15.4125 21.8827C15.4902 21.958 15.5939 21.9995 15.7015 21.9995C15.7072 21.9995 15.7127 21.9995 15.7184 21.9991L17.7776 21.9153C18.0003 21.9063 18.1765 21.7237 18.1773 21.5007L18.1969 16.3128C18.0869 16.3524 17.9723 16.3819 17.8508 16.3889L15.3041 16.4917Z" fill="currentColor"/>
    <path d="M18.0906 2.09165C17.9865 2.00834 17.8531 1.98332 17.7282 2.01668C15.7992 2.51244 14.3618 4.26648 14.1452 6.38292L13.2536 15.2654C13.2411 15.3862 13.2786 15.5029 13.3619 15.5904C13.4411 15.6779 13.5536 15.7237 13.666 15.7237H13.6827L17.8032 15.5571C18.024 15.5445 18.199 15.3654 18.2031 15.1404L18.2489 2.4208C18.2489 2.29162 18.1906 2.17083 18.0906 2.09165Z" fill="currentColor"/>
    <path d="M9.08331 10.6368C8.64149 10.6368 8.22656 10.5227 7.84739 10.3199L7.55738 20.2546C7.52503 20.7209 7.68269 21.1798 7.98987 21.5134C8.27366 21.8218 8.65367 21.9948 9.05992 22.0001C9.06643 22.0001 9.07294 22.0001 9.07945 22.0001C9.48346 22.0001 9.86327 21.8341 10.1509 21.5318C10.4673 21.1989 10.6314 20.7367 10.6017 20.2798L10.3514 10.3038C9.96382 10.5176 9.53747 10.6368 9.08331 10.6368Z" fill="currentColor"/>
    <path d="M9.08301 2C7.68313 2 6.58325 3.71655 6.58325 5.90384C6.58325 8.09114 7.68313 9.80342 9.08301 9.80342C10.487 9.80342 11.5828 8.09114 11.5828 5.90384C11.5828 3.71655 10.487 2 9.08301 2Z" fill="currentColor"/>
</svg>
