<svg width="25" height="24" viewBox="0 0 25 24" fill="none" xmlns="http://www.w3.org/2000/svg">
    <path d="M3.61006 8.8658C3.89124 8.95302 4.19014 9 4.5 9C6.15685 9 7.5 7.65685 7.5 6C7.5 5.7078 7.45823 5.42536 7.38032 5.15832M3.61006 8.8658C3.65696 8.25584 3.71954 7.62264 3.79912 6.95365C3.90769 6.04091 4.84486 5.32182 6.01848 5.24315C6.48536 5.21185 6.93843 5.18357 7.38032 5.15832M3.61006 8.8658C3.44158 11.057 3.47548 12.9483 3.65084 15.1219M7.38032 5.15832C11.0606 4.94797 13.9659 4.94716 17.6203 5.1563M3.65084 15.1219C3.69957 15.7259 3.75923 16.3517 3.8285 17.0118C3.92612 17.942 4.87088 18.6849 6.06588 18.7642C6.51541 18.794 6.95241 18.821 7.3793 18.8452M3.65084 15.1219C3.92008 15.0426 4.20507 15 4.5 15C6.15685 15 7.5 16.3431 7.5 18C7.5 18.2935 7.45786 18.5771 7.3793 18.8452M7.3793 18.8452C11.0253 19.0516 13.9342 19.0519 17.6204 18.8442M17.6204 18.8442C18.0521 18.8199 18.4944 18.7927 18.9497 18.7627C20.1418 18.684 21.0866 17.9451 21.1853 17.0173C21.2557 16.3557 21.3148 15.7293 21.3621 15.1257M17.6204 18.8442C17.542 18.5764 17.5 18.2931 17.5 18C17.5 16.3431 18.8431 15 20.5 15C20.7997 15 21.0891 15.0439 21.3621 15.1257M21.3621 15.1257C21.5339 12.9343 21.55 11.0442 21.3833 8.86786M21.3833 8.86786C21.3367 8.26 21.2759 7.62981 21.2002 6.96448C21.0958 6.04691 20.1574 5.32059 18.9781 5.24115C18.5128 5.20981 18.0611 5.18153 17.6203 5.1563M21.3833 8.86786C21.104 8.95376 20.8074 9 20.5 9C18.8431 9 17.5 7.65685 17.5 6C17.5 5.70706 17.542 5.42394 17.6203 5.1563M6.51001 12H6.50001M18.51 12H18.5M15.5 12C15.5 13.6569 14.1569 15 12.5 15C10.8431 15 9.5 13.6569 9.5 12C9.5 10.3431 10.8431 9 12.5 9C14.1569 9 15.5 10.3431 15.5 12Z" stroke='currentColor' stroke-width="1.5" stroke-linecap="round"/>
</svg>
