<svg width="21" height="20" viewBox="0 0 21 20" fill="none" xmlns="http://www.w3.org/2000/svg">
    <path d="M3.83301 15H5.49967V16.6667H15.4997V3.33332H5.49967V4.99999H3.83301V2.49999C3.83301 2.27898 3.92081 2.06701 4.07709 1.91073C4.23337 1.75445 4.44533 1.66666 4.66634 1.66666H16.333C16.554 1.66666 16.766 1.75445 16.9223 1.91073C17.0785 2.06701 17.1663 2.27898 17.1663 2.49999V17.5C17.1663 17.721 17.0785 17.933 16.9223 18.0892C16.766 18.2455 16.554 18.3333 16.333 18.3333H4.66634C4.44533 18.3333 4.23337 18.2455 4.07709 18.0892C3.92081 17.933 3.83301 17.721 3.83301 17.5V15ZM5.49967 9.16666H11.333V10.8333H5.49967V13.3333L1.33301 9.99999L5.49967 6.66666V9.16666Z" fill="currentColor"/>
</svg>
