<svg width="24" height="24" viewBox="0 0 24 24" fill="none" xmlns="http://www.w3.org/2000/svg">
    <path d="M18.5002 20.25H14.5002C14.0902 20.25 13.7502 19.91 13.7502 19.5C13.7502 19.09 14.0902 18.75 14.5002 18.75H18.5002C18.9102 18.75 19.2502 19.09 19.2502 19.5C19.2502 19.91 18.9102 20.25 18.5002 20.25Z" fill="currentColor"/>
    <path d="M16.5002 22.25C16.0902 22.25 15.7502 21.91 15.7502 21.5V17.5C15.7502 17.09 16.0902 16.75 16.5002 16.75C16.9102 16.75 17.2502 17.09 17.2502 17.5V21.5C17.2502 21.91 16.9102 22.25 16.5002 22.25Z" fill="currentColor"/>
    <path d="M12.1602 11.62C12.1302 11.62 12.1102 11.62 12.0802 11.62C12.0302 11.61 11.9602 11.61 11.9002 11.62C9.00016 11.53 6.81016 9.25 6.81016 6.44C6.80016 5.06 7.34016 3.76 8.32016 2.78C9.30016 1.8 10.6002 1.25 11.9902 1.25C14.8502 1.25 17.1802 3.58 17.1802 6.44C17.1802 9.25 14.9902 11.52 12.1902 11.62C12.1802 11.62 12.1702 11.62 12.1602 11.62ZM11.9902 2.75C11.0002 2.75 10.0802 3.14 9.38016 3.83C8.69016 4.53 8.31017 5.45 8.31017 6.43C8.31017 8.43 9.87016 10.05 11.8602 10.11C11.9202 10.1 12.0502 10.1 12.1802 10.11C14.1502 10.02 15.6802 8.41 15.6802 6.43C15.6802 4.41 14.0202 2.75 11.9902 2.75Z" fill="currentColor"/>
    <path d="M11.9902 22.5599C9.95016 22.5599 8.02016 22.0299 6.56016 21.0499C5.17016 20.1199 4.41016 18.8499 4.41016 17.4799C4.41016 16.1099 5.18016 14.8499 6.56016 13.9299C9.55016 11.9299 14.4102 11.9299 17.4002 13.9299C17.7402 14.1599 17.8402 14.6299 17.6102 14.9699C17.3802 15.3199 16.9102 15.4099 16.5702 15.1799C14.0802 13.5199 9.88016 13.5199 7.39016 15.1799C6.43016 15.8199 5.91016 16.6299 5.91016 17.4799C5.91016 18.3299 6.43016 19.1599 7.39016 19.7999C8.60016 20.6099 10.2302 21.0499 11.9802 21.0499C12.3902 21.0499 12.7302 21.3899 12.7302 21.7999C12.7302 22.2099 12.4002 22.5599 11.9902 22.5599Z" fill="currentColor"/>
</svg>
