<svg width="24" height="24" viewBox="0 0 24 24" fill="currentColor" xmlns="http://www.w3.org/2000/svg">
<path d="M8 12.25C7.44771 12.25 7 12.6977 7 13.25C7 13.8023 7.44771 14.25 8 14.25H8.01C8.56228 14.25 9.01 13.8023 9.01 13.25C9.01 12.6977 8.56228 12.25 8.01 12.25H8Z" fill="
currentColor"/>
<path d="M7 16.75C7 16.1977 7.44771 15.75 8 15.75H8.01C8.56228 15.75 9.01 16.1977 9.01 16.75C9.01 17.3023 8.56228 17.75 8.01 17.75H8C7.44771 17.75 7 17.3023 7 16.75Z" fill="
currentColor"/>
<path d="M12.01 12.25C11.4577 12.25 11.01 12.6977 11.01 13.25C11.01 13.8023 11.4577 14.25 12.01 14.25H12.02C12.5723 14.25 13.02 13.8023 13.02 13.25C13.02 12.6977 12.5723 12.25 12.02 12.25H12.01Z" fill="currentColor"/>
<path d="M11.01 16.75C11.01 16.1977 11.4577 15.75 12.01 15.75H12.02C12.5723 15.75 13.02 16.1977 13.02 16.75C13.02 17.3023 12.5723 17.75 12.02 17.75H12.01C11.4577 17.75 11.01 17.3023 11.01 16.75Z" fill="currentColor"/>
<path d="M16.02 12.25C15.4677 12.25 15.02 12.6977 15.02 13.25C15.02 13.8023 15.4677 14.25 16.02 14.25H16.03C16.5823 14.25 17.03 13.8023 17.03 13.25C17.03 12.6977 16.5823 12.25 16.03 12.25H16.02Z" fill="currentColor"/>
<path d="M15.02 16.75C15.02 16.1977 15.4677 15.75 16.02 15.75H16.03C16.5823 15.75 17.03 16.1977 17.03 16.75C17.03 17.3023 16.5823 17.75 16.03 17.75H16.02C15.4677 17.75 15.02 17.3023 15.02 16.75Z" fill="currentColor"/>
<path fill-rule="evenodd" clip-rule="evenodd" d="M8.75 3.25C8.75 2.83579 8.41421 2.5 8 2.5C7.58578 2.5 7.25 2.83579 7.25 3.25V4.19367C6.89979 4.21998 6.54173 4.24898 6.17424 4.28065C4.77215 4.40149 3.64925 5.50644 3.51906 6.91365C3.42757 7.90258 3.36094 8.82563 3.31687 9.71279C3.16836 12.7025 3.27723 15.2646 3.54449 18.5388C3.66081 19.964 4.78696 21.1058 6.21705 21.2278C10.4716 21.5906 13.4881 21.5914 17.7965 21.2261C19.2224 21.1051 20.3499 19.9695 20.4677 18.5459C20.7414 15.2373 20.8263 12.6751 20.6772 9.71229C20.6327 8.82859 20.5675 7.911 20.4806 6.92903C20.3556 5.51679 19.2328 4.40049 17.823 4.2784C17.4566 4.24667 17.0994 4.21765 16.75 4.19135V3.25C16.75 2.83579 16.4142 2.5 16 2.5C15.5858 2.5 15.25 2.83579 15.25 3.25V4.09273C13.0056 3.96832 11.0066 3.96913 8.75 4.09492V3.25ZM19.2106 10.5H4.78429C4.68933 13.1047 4.79703 15.4461 5.03951 18.4168C5.09673 19.1178 5.65015 19.674 6.3445 19.7332C10.5139 20.0888 13.4453 20.0897 17.6697 19.7314C18.3631 19.6726 18.9152 19.1192 18.9728 18.4222C19.2203 15.431 19.3091 13.087 19.2106 10.5Z" fill="currentColor"/>
</svg>
