<svg width="35" height="35" viewBox="0 0 24 24" fill="none" xmlns="http://www.w3.org/2000/svg">
    <path d="M13.6739 6.80083C13.6739 8.89997 12.0288 10.6017 9.99954 10.6017C7.97024 10.6017 6.32516 8.89997 6.32516 6.80083C6.32516 4.70169 7.97024 3 9.99954 3C12.0288 3 13.6739 4.70169 13.6739 6.80083Z" fill="currentColor"/>
    <path d="M3.09611 17.1881C3.45599 14.6089 5.38633 12.5012 7.89889 12.3119C9.33443 12.2037 10.6698 12.2035 12.1026 12.3113C14.6141 12.5002 16.543 14.6077 16.9028 17.1859L16.9727 17.6873C17.1801 19.1732 16.1822 20.5602 14.7391 20.7202C11.3522 21.0959 8.65804 21.0916 5.26617 20.7173C3.82081 20.5578 2.81961 19.1697 3.02726 17.6815L3.09611 17.1881Z" fill="currentColor"/>
    <path d="M18.379 19.0802C18.5032 18.5659 18.5342 18.0232 18.4584 17.48L18.3885 16.9786C18.0845 14.8003 16.8428 12.8038 14.9986 11.6986C15.593 11.6984 16.1871 11.7216 16.8022 11.768C18.9549 11.9307 20.6083 13.7456 20.9167 15.9656L20.9766 16.3974C21.1544 17.6769 20.299 18.8712 19.0621 19.0091C18.8308 19.0349 18.6033 19.0586 18.379 19.0802Z" fill="currentColor"/>
    <path d="M15.174 6.80083C15.174 8.05252 14.7452 9.21769 14.0217 10.135C14.3295 10.2394 14.6582 10.2959 14.9996 10.2959C16.739 10.2959 18.1491 8.83053 18.1491 7.02294C18.1491 5.21534 16.739 3.75 14.9996 3.75C14.7545 3.75 14.516 3.77909 14.287 3.83414C14.8488 4.6864 15.174 5.71081 15.174 6.80083Z" fill="currentColor"/>
</svg>
