<svg width="35" height="35" viewBox="0 0 24 24" fill="none" xmlns="http://www.w3.org/2000/svg">
    <path fill-rule="evenodd" clip-rule="evenodd" d="M13.2145 3.08124C13.6774 3.14367 14.0001 3.55449 14.0001 4.02152V4.17127C14.0001 4.8349 14.4444 5.40495 15.042 5.69369C15.3549 5.8449 15.6548 6.01871 15.9397 6.213C16.4877 6.58685 17.2034 6.68641 17.778 6.35469L17.9088 6.27917C18.3128 6.04588 18.8294 6.11955 19.1154 6.4882C19.6108 7.12676 20.0221 7.83379 20.3327 8.5927C20.5095 9.0245 20.3149 9.50876 19.9109 9.74205L19.7785 9.8185C19.2043 10.15 18.9325 10.8188 18.9811 11.48C18.9937 11.6517 19.0001 11.8251 19.0001 12C19.0001 12.1749 18.9937 12.3483 18.9811 12.52C18.9325 13.1811 19.2044 13.85 19.7785 14.1815L19.9109 14.2579C20.315 14.4912 20.5095 14.9755 20.3328 15.4073C20.0221 16.1662 19.6108 16.8732 19.1154 17.5118C18.8294 17.8804 18.3128 17.9541 17.9088 17.7208L17.778 17.6453C17.2034 17.3136 16.4878 17.4131 15.9397 17.787C15.6548 17.9813 15.3549 18.1551 15.042 18.3063C14.4444 18.5951 14.0001 19.1651 14.0001 19.8287V19.9785C14.0001 20.4455 13.6774 20.8563 13.2145 20.9188C12.8173 20.9723 12.4119 21 12.0001 21C11.5882 21 11.1828 20.9723 10.7856 20.9188C10.3228 20.8563 10.0001 20.4455 10.0001 19.9785V19.8287C10.0001 19.1651 9.5557 18.595 8.95818 18.3063C8.64527 18.1551 8.34532 17.9813 8.06045 17.7869C7.51236 17.4131 6.7967 17.3135 6.22213 17.6452L6.09137 17.7207C5.68729 17.954 5.17069 17.8804 4.8847 17.5117C4.38934 16.8731 3.97804 16.1661 3.6674 15.4072C3.49066 14.9754 3.6852 14.4911 4.08926 14.2579L4.22171 14.1814C4.79582 13.8499 5.06765 13.1811 5.01911 12.5199C5.0065 12.3483 5.00009 12.1749 5.00009 12C5.00009 11.8251 5.0065 11.6517 5.01911 11.48C5.06766 10.8189 4.79583 10.15 4.22171 9.81856L4.08928 9.7421C3.68522 9.50882 3.49067 9.02456 3.66742 8.59276C3.97806 7.83385 4.38937 7.12682 4.88474 6.48825C5.17072 6.11959 5.68732 6.04593 6.09139 6.27922L6.22217 6.35472C6.79674 6.68645 7.51239 6.58688 8.06049 6.21303C8.34534 6.01873 8.64528 5.84492 8.95818 5.69371C9.5557 5.40496 10.0001 4.83491 10.0001 4.17129V4.02153C10.0001 3.5545 10.3228 3.14367 10.7856 3.08124C11.1828 3.02767 11.5882 3 12.0001 3C12.4119 3 12.8173 3.02766 13.2145 3.08124ZM12 15C13.6569 15 15 13.6569 15 12C15 10.3431 13.6569 9 12 9C10.3432 9 9.00005 10.3431 9.00005 12C9.00005 13.6569 10.3432 15 12 15Z" fill="currentColor"/>
</svg>
