<svg xmlns="http://www.w3.org/2000/svg" viewBox="0 0 41.72 26" fill="currentColor"
     width="35px"
     height="35px">
    <path d="M12.47,20.18a8.33,8.33,0,0,1-1.89-.32.46.46,0,1,0-.25.88,9.24,9.24,0,0,0,2.1.36h0a.46.46,0,0,0,0-.91Z"/>
    <path d="M8.4,19.19a8.67,8.67,0,0,1-4.32-2.8.46.46,0,0,0-.71.57,9.45,9.45,0,0,0,4.86,3.12h.09a.46.46,0,0,0,.09-.91Z"/>
    <path d="M5,8.66a4.1,4.1,0,0,0-2.23,3.16.46.46,0,0,0,.42.49h0a.46.46,0,0,0,.46-.42A3.17,3.17,0,0,1,5.45,9.48.46.46,0,0,0,5,8.66Z"/>
    <path d="M39.52,13.76H37.91c4.4-3.61,3.8-9.51,3.77-9.77a.46.46,0,0,0-.45-.41c-4.76,0-7.7,1.52-9.52,3.46.71-4-2.33-6.11-3.44-6.75C28,.13,27.77,0,27.76,0a.46.46,0,0,0-.58.19c-1.49,2.58-1.51,4.62-1,6.15a9.71,9.71,0,0,0-5.37-1.5,7.23,7.23,0,0,0-.73,0,.46.46,0,0,0-.4.46c0,.35,0,.68,0,1a6.15,6.15,0,0,0-9.11,3.16A5,5,0,0,0,6.16,6.79H6L7.7,4.36A.46.46,0,1,0,7,3.84L5.14,6.44l-3-1.64a.46.46,0,1,0-.44.8L4.43,7.1a5,5,0,0,0-2.92,6.66H.46a.46.46,0,0,0-.46.49C.48,20.51,8.46,23,11.76,23.36v1.26A1.37,1.37,0,0,0,13.13,26H26.85a1.37,1.37,0,0,0,1.37-1.37V23.37c3.38-.29,11.26-2.73,11.75-9.12a.46.46,0,0,0-.46-.49Zm-17-1a7.69,7.69,0,0,0,1.38,1H22.23A6.12,6.12,0,0,0,22.51,12.78ZM40.79,4.5c0,1.42-.1,6.18-4,8.93H32.68L36.6,9.51A.46.46,0,1,0,36,8.86l-4.26,4.27a.45.45,0,0,0-.13.3H29.79C30.24,9.93,32.33,4.67,40.79,4.5Zm-13-3.43,0,0h0c1.49.86,4.67,3.38,2.14,8.19L29.13,5a.46.46,0,0,0-.9.17L29,9.43l-1-1.7,0-.05C26.48,5.85,26.41,3.63,27.76,1.07ZM20.63,5.8h.29c2.29,0,7.37.77,7.94,7.5l-4-3.93a.46.46,0,0,0-.64.65l3.46,3.4-2.36,0a6.81,6.81,0,0,1-2.69-1.81,8.1,8.1,0,0,1-1.89-4.47Q20.65,6.5,20.63,5.8Zm-4.18.53a5.23,5.23,0,0,1,3.44,1.29,9,9,0,0,0,1.81,4.3,5.23,5.23,0,0,1-.46,1.84H19.39l-1.59-1.6a.46.46,0,0,0-.65.65l.95.95H14.8l.95-.95a.46.46,0,0,0-.65-.65l-1.6,1.6H11.66a5.25,5.25,0,0,1,4.79-7.43ZM2,11.82a4.12,4.12,0,1,1,7.75,1.94H2.53A4.09,4.09,0,0,1,2,11.82ZM27.75,22.48a.46.46,0,0,0-.44.46v1.69a.46.46,0,0,1-.46.46H13.13a.46.46,0,0,1-.46-.46V22.94a.46.46,0,0,0-.44-.46C9.56,22.38,1.82,20.25,1,14.67H39C38.16,20.29,30.42,22.39,27.75,22.48Z"/>
    <path d="M15.11,10.77a.46.46,0,0,0,.65-.65L14.14,8.5a.46.46,0,1,0-.65.65Z"/>
    <path d="M17.47,10.9a.46.46,0,0,0,.32-.13l1.62-1.62a.46.46,0,0,0-.65-.65l-1.62,1.62a.46.46,0,0,0,.32.78Z"/>
</svg>