<svg xmlns="http://www.w3.org/2000/svg" viewBox="0 0 22.73 34" fill="currentColor"
     width="35px"
     height="35px"><path d="M11.32,12.84a5,5,0,1,1,5-5A5,5,0,0,1,11.32,12.84Zm0-9.11a4.08,4.08,0,1,0,4.08,4.08A4.09,4.09,0,0,0,11.32,3.73Z"/><path d="M11,6.54A3.83,3.83,0,0,1,10,6.38a.47.47,0,0,1,.29-.9s1.32.4,1.92-.33a.47.47,0,0,1,.73.6A2.32,2.32,0,0,1,11,6.54Z"/><path d="M11.51,6.23A.47.47,0,0,1,11.1,6a4.3,4.3,0,0,1-.19-3.27A4.88,4.88,0,0,1,14,0a.47.47,0,0,1,.33.89A4,4,0,0,0,11.79,3a3.39,3.39,0,0,0,.14,2.51.47.47,0,0,1-.42.69Z"/><path d="M11.32,11.31l-.41,0a.47.47,0,1,1,.09-.94h.33a.47.47,0,0,1,0,.95Z"/><polygon points="21.07 22.81 20.69 22.62 20.68 22.62 21.07 22.81"/><path d="M17.41,21.65h-.24l.11.09Z"/><path d="M13.47,21.65h-.22l.11.08Z"/><path d="M22.73,20.12c0-1.85-1-3.14-2.46-3.36a2.34,2.34,0,0,0,.09-2.12A2.89,2.89,0,0,0,18.09,13c.06-1,0-2.85-1.43-3.29a2,2,0,0,0-1.75.05.5.5,0,0,0-.13.69.47.47,0,0,0,.66.13,1.42,1.42,0,0,1,.94.07c.89.27.8,2.12.7,2.75a.49.49,0,0,0,.54.56,1.93,1.93,0,0,1,1.87,1.15,1.86,1.86,0,0,1-.39,1.79l0,.07a.49.49,0,0,0,0,.41l0,0a.49.49,0,0,0,.51.32l.28,0c1.44,0,1.95,1.25,1.95,2.42a2.4,2.4,0,0,1-.55,1.53H21a1.81,1.81,0,0,1,.32.27,1.13,1.13,0,0,1,.26.67.48.48,0,0,0,.2-.12A3.37,3.37,0,0,0,22.73,20.12Z"/><path d="M19.2,21.13a3.06,3.06,0,0,0-1.79.51H21A3.23,3.23,0,0,0,19.2,21.13Z"/><path d="M15.31,21.1a3,3,0,0,0-1.84.54h3.7A3.18,3.18,0,0,0,15.31,21.1Z"/><path d="M9.59,21.65H9.33l.13.09Z"/><path d="M5.7,21.65H5.48l.11.07Z"/><path d="M1.81,21.65H1.52A2.4,2.4,0,0,1,1,20.12c0-1.17.51-2.42,1.95-2.42l.28,0a.51.51,0,0,0,.49-.27l0,0a.5.5,0,0,0-.16-.65A1.63,1.63,0,0,1,2.89,15a1.49,1.49,0,0,1,1.79-1.1.49.49,0,0,0,.6-.55S4.89,11,6.32,10.61a1.56,1.56,0,0,1,.58-.08,1.24,1.24,0,0,1,.14.14l.24.27A.49.49,0,1,0,8,10.25L7.78,10c-.41-.48-.72-.61-1.68-.37-1.71.41-1.88,2.25-1.84,3.23A2.43,2.43,0,0,0,2,14.7a2.31,2.31,0,0,0,.32,2.09A3.1,3.1,0,0,0,0,20.12a3.37,3.37,0,0,0,1,2.35.48.48,0,0,0,.32.14,1.1,1.1,0,0,1,.27-.71A1.56,1.56,0,0,1,1.81,21.65Z"/><path d="M21.43,22.62h-.74l.38.19-.38-.19h0L17.07,32.74a.47.47,0,0,1-.45.32H15.25l1.06-4.35.39-1.64,1-4,.1-.41h-1L16,25.85l-1.74,7.21H13l.83-10.33v-.05h0v0h-.94l-.4,5L12,33.05H10.79L9.93,22.62H9v0H9s0,0,0,.05l.83,10.38H8.6L6.08,22.62h-1v0a1.39,1.39,0,0,0,0,.22L7.59,33.05H6.21a.47.47,0,0,1-.45-.32L2.22,22.66a.12.12,0,0,1,0,0H1.27a1.08,1.08,0,0,0,.05.35l3.73,10.6a.65.65,0,0,0,.61.43H17.17a.65.65,0,0,0,.61-.43L21.51,23a.89.89,0,0,0,.07-.4A.48.48,0,0,1,21.43,22.62Z"/><path d="M7.52,21.13a3.06,3.06,0,0,0-1.82.51H9.33A3.11,3.11,0,0,0,7.52,21.13Z"/><path d="M3.66,21.1a3.15,3.15,0,0,0-1.85.54H5.48A3.17,3.17,0,0,0,3.66,21.1Z"/><path d="M11.36,21.68a.47.47,0,0,1,.15,0h1.74a3.08,3.08,0,0,0-1.83-.54,3.22,3.22,0,0,0-1.83.54h1.63A.47.47,0,0,1,11.36,21.68Z"/><path d="M2.21,22.62a.2.2,0,0,1,.06-.12A2,2,0,0,1,3.66,22a1.71,1.71,0,0,1,1.44.53v0h1v0l0,0,0,0a2,2,0,0,1,1.38-.42c.88,0,1.39.36,1.45.54h1v0a.36.36,0,0,1,.1-.12,2,2,0,0,1,1-.4.48.48,0,0,1,.32-.4.47.47,0,0,0-.14,0H9.59l-.13.09-.13-.09H5.7l-.11.07-.11-.07H1.81a1.56,1.56,0,0,0-.28.26,1.1,1.1,0,0,0-.27.71h.94Z"/><path d="M21,21.65H17.41l-.13.09-.11-.09h-3.7l-.11.08-.11-.08H11.51a.48.48,0,0,0-.47.43l.38,0a2.1,2.1,0,0,1,1.39.43.36.36,0,0,1,.1.14h.95c0-.16.53-.56,1.46-.56a2.05,2.05,0,0,1,1.39.43.23.23,0,0,1,.08.13h1c0-.19.57-.53,1.44-.53a2.08,2.08,0,0,1,1.39.45l.05.07,0,0h.74a.48.48,0,0,0,.15,0,1.13,1.13,0,0,0-.26-.67A1.81,1.81,0,0,0,21,21.65Z"/><polygon points="20.64 22.62 20.68 22.62 20.64 22.6 20.64 22.62"/><path d="M9.45,10.54a.47.47,0,0,1-.26-.08A3.18,3.18,0,0,1,7.74,7.71a.47.47,0,0,1,.94.07,2.24,2.24,0,0,0,1,1.9.47.47,0,0,1-.26.87Z"/><path d="M7.78,18.29a18.44,18.44,0,0,1-4.54-.62.47.47,0,0,1,.26-.91,16,16,0,0,0,5.94.46.47.47,0,0,1,.16.93A11.12,11.12,0,0,1,7.78,18.29Z"/><path d="M14,14.81a8.18,8.18,0,0,1-1.77-.17.47.47,0,0,1,.22-.92,8.55,8.55,0,0,0,4.84-.51.47.47,0,1,1,.37.87A9.29,9.29,0,0,1,14,14.81Z"/></svg>