<svg xmlns="http://www.w3.org/2000/svg" viewBox="0 0 47.47 31" fill="currentColor"
     width="35px"
     height="35px"><path d="M13.88,11a.39.39,0,0,0,.29-.72,2.64,2.64,0,0,1-.73-2.49,3.94,3.94,0,0,1,.64-1.13,3.71,3.71,0,0,0,.86-1.92,2.6,2.6,0,0,0-1.05-2.26.39.39,0,0,0-.44.64,1.82,1.82,0,0,1,.72,1.56,3,3,0,0,1-.71,1.52,4.6,4.6,0,0,0-.75,1.36C12.33,8.74,13,10.6,13.88,11Z"/><path d="M19.1,8.58a.39.39,0,0,0,.29-.72,2.64,2.64,0,0,1-.73-2.49,3.94,3.94,0,0,1,.64-1.13,3.71,3.71,0,0,0,.86-1.92A2.6,2.6,0,0,0,19.11.07a.39.39,0,0,0-.44.64,1.82,1.82,0,0,1,.72,1.56,3,3,0,0,1-.71,1.52,4.6,4.6,0,0,0-.75,1.36C17.55,6.35,18.19,8.21,19.1,8.58Z"/><path d="M23.76,10.76A.39.39,0,0,0,24,10a2.64,2.64,0,0,1-.73-2.49A3.94,3.94,0,0,1,24,6.43a3.71,3.71,0,0,0,.86-1.92,2.6,2.6,0,0,0-1.05-2.26.39.39,0,0,0-.44.64A1.82,1.82,0,0,1,24,4.45,3,3,0,0,1,23.33,6a4.6,4.6,0,0,0-.75,1.35C22.21,8.53,22.85,10.39,23.76,10.76Z"/><path d="M47.39,10.5a.42.42,0,0,0-.6-.09L34.87,18.95l9.9-11.63a.5.5,0,0,0,0-.6.5.5,0,0,0-.6,0L32.94,19.9H35l12.25-8.8A.4.4,0,0,0,47.39,10.5Z"/><path d="M11.62,26.43h0a8.62,8.62,0,0,1-2-.33.43.43,0,1,1,.24-.82,7.76,7.76,0,0,0,1.76.3.43.43,0,0,1,0,.85Z"/><path d="M7.75,25.49H7.67a8.81,8.81,0,0,1-4.53-2.91A.43.43,0,0,1,3.8,22a8.09,8.09,0,0,0,4,2.61.43.43,0,0,1-.08.85Z"/><path d="M27,19.58l0,0,0,0Z"/><path d="M7.88,17.77A2.14,2.14,0,0,1,10,19.48h.86a3,3,0,0,0-5.91,0h.86A2.14,2.14,0,0,1,7.88,17.77Z"/><path d="M13,17.87a5.49,5.49,0,0,0,.36,1.5A5.51,5.51,0,0,0,13,17.87Z"/><path d="M7.88,13.5a6.41,6.41,0,0,0-6.38,6h.85a5.54,5.54,0,0,1,9.86-3,6.36,6.36,0,0,1,.22-1A6.36,6.36,0,0,0,7.88,13.5Z"/><path d="M13,17.87a5.51,5.51,0,0,1,.36,1.5l0,.1h.82a6.37,6.37,0,0,0-1.15-3.24A5.55,5.55,0,0,0,13,17.34C13,17.52,13,17.7,13,17.87Z"/><path d="M12.21,16.46A5.55,5.55,0,0,1,13,17.87c0-.17,0-.35,0-.53a5.55,5.55,0,0,1,.11-1.11,6.44,6.44,0,0,0-.67-.81A6.36,6.36,0,0,0,12.21,16.46Z"/><path d="M13.4,19.48h0l0-.1S13.4,19.44,13.4,19.48Z"/><path d="M18.55,20.33a2.12,2.12,0,0,0,1.61-.75H16.94A2.12,2.12,0,0,0,18.55,20.33Z"/><path d="M37.19,19.72a.43.43,0,0,0-.31-.14H21.19a3,3,0,0,1-.68.85H36.4c-.79,5.24-8,7.2-10.5,7.28a.43.43,0,0,0-.41.43v1.58a.43.43,0,0,1-.43.43H12.25a.43.43,0,0,1-.43-.43V28.14a.43.43,0,0,0-.41-.43C8.92,27.62,1.7,25.64.9,20.43H16.58a3,3,0,0,1-.68-.85H.43A.43.43,0,0,0,0,20c.45,5.84,7.89,8.2,11,8.5v1.18A1.28,1.28,0,0,0,12.25,31h12.8a1.28,1.28,0,0,0,1.28-1.28V28.54c3.16-.27,10.51-2.54,11-8.5A.43.43,0,0,0,37.19,19.72Z"/><path d="M16.41,18.2a2.13,2.13,0,1,1,4.27,0,2.11,2.11,0,0,1-.52,1.38h1a3,3,0,0,0,.35-1.38,3,3,0,0,0-6,0,3,3,0,0,0,.35,1.38h1A2.11,2.11,0,0,1,16.41,18.2Z"/><path d="M16.58,20.43h3.93a3,3,0,0,0,.68-.85h-1a2.1,2.1,0,0,1-3.22,0h-1A3,3,0,0,0,16.58,20.43Z"/><path d="M24.75,16.65a6.4,6.4,0,0,0-12.32-.37,6.44,6.44,0,0,1,.67.81A5.54,5.54,0,0,1,24,17.35,6.45,6.45,0,0,1,24.75,16.65Z"/><path d="M24,16.49a6.39,6.39,0,0,0-1.61,3.83h.85a5.52,5.52,0,0,1,.8-2.47c0-.17,0-.34,0-.52A5.54,5.54,0,0,0,24,16.49Z"/><path d="M28.79,14.35a6.35,6.35,0,0,0-4,1.45,6.35,6.35,0,0,1,.17,1,5.53,5.53,0,0,1,9.4,3.54h.85A6.41,6.41,0,0,0,28.79,14.35Z"/><path d="M24,16.49a5.54,5.54,0,0,1,.07.85c0,.18,0,.35,0,.52a5.58,5.58,0,0,1,.86-1.07,6.35,6.35,0,0,0-.17-1A6.45,6.45,0,0,0,24,16.49Z"/><path d="M28.79,18.2a2.14,2.14,0,0,1,2.09,1.71h.86a3,3,0,0,0-5.91,0h.86A2.14,2.14,0,0,1,28.79,18.2Z"/></svg>