<svg xmlns="http://www.w3.org/2000/svg" viewBox="0 0 30.08 34" fill="currentColor"
     width="35px"
     height="35px"><path d="M22,13H6.35a.42.42,0,1,1,0-.84H22A.42.42,0,1,1,22,13Z"/><path d="M17.53,24.46a1.26,1.26,0,1,1,1.26-1.26A1.26,1.26,0,0,1,17.53,24.46Zm0-1.68a.42.42,0,1,0,.42.42A.42.42,0,0,0,17.53,22.78Z"/><path d="M15.48,20.54a1.26,1.26,0,1,1,1.26-1.26A1.26,1.26,0,0,1,15.48,20.54Zm0-1.68a.42.42,0,1,0,.42.42A.42.42,0,0,0,15.48,18.86Z"/><path d="M18.21,17.18a1.47,1.47,0,1,1,1.47-1.47A1.47,1.47,0,0,1,18.21,17.18Zm0-2.1a.63.63,0,1,0,.63.63A.63.63,0,0,0,18.21,15.07Z"/><path d="M14.38,31.41a.42.42,0,0,1-.37-.3l-7.92-26a1.26,1.26,0,0,0-1.78-.81L.61,6.11a.42.42,0,0,1-.37-.76L3.94,3.54a2.1,2.1,0,0,1,3,1.33l7.92,26a.42.42,0,0,1-.44.54Z"/><path d="M22.51,2.88a4.69,4.69,0,0,1,.08,9.39c0,.29,0,.57,0,.84A5.53,5.53,0,1,0,17,7.5h.84A4.7,4.7,0,0,1,22.51,2.88Z"/><path d="M17,8.34h.85a4.69,4.69,0,0,1-.07-.77s0,0,0-.07H17s0,0,0,.07A5.53,5.53,0,0,0,17,8.34Z"/><path d="M22.51,12.27a4.69,4.69,0,0,1-.76-.07q0,.43,0,.85a5.53,5.53,0,0,0,.77.06h.07c0-.28,0-.55,0-.84Z"/><path d="M21.48,8.34h.3c0,.1,0,.2,0,.3a.81.81,0,0,0,.84,0c0-.24,0-.48,0-.72a.42.42,0,0,0-.42-.42h-.72a.81.81,0,0,0,0,.84Z"/><path d="M20.59,7.5H17.81s0,0,0,.07a4.69,4.69,0,0,0,.07.77h2.71a1.51,1.51,0,0,1,0-.84Z"/><path d="M21.78,9.55q0,1.41,0,2.66a4.69,4.69,0,0,0,.76.07h.08c0-.85,0-1.75,0-2.71a1.51,1.51,0,0,1-.84,0Z"/><path d="M23.89,7.92a1.68,1.68,0,0,0-3.3-.42h.9a.84.84,0,1,1,1.14,1.15q0,.46,0,.9A1.68,1.68,0,0,0,23.89,7.92Z"/><path d="M22.21,8.77a.83.83,0,0,1-.42-.12c0,.3,0,.61,0,.9a1.51,1.51,0,0,0,.84,0q0-.44,0-.9A.83.83,0,0,1,22.21,8.77Z"/><path d="M21.37,7.92a.83.83,0,0,1,.12-.42h-.9a1.51,1.51,0,0,0,0,.84h.9A.83.83,0,0,1,21.37,7.92Z"/><rect x="21.79" y="2.46" width="0.84" height="4.21"/><rect x="23.47" y="7.5" width="4.21" height="0.84"/><rect x="22.36" y="4.97" width="4.4" height="0.84" transform="translate(4.46 20.49) rotate(-49.3)"/><rect x="19.68" y="3.67" width="0.84" height="3.86" transform="translate(1.24 14.51) rotate(-40.85)"/><rect x="23.89" y="8.3" width="0.84" height="3.86" transform="translate(-0.77 18.39) rotate(-40.85)"/><path d="M22.51,13.11a5.53,5.53,0,0,1-.77-.06c0,.42,0,.81,0,1.2a6.74,6.74,0,0,0,.81.05h0c0-.39,0-.78,0-1.19Z"/><path d="M15.83,8.34H17A5.53,5.53,0,0,1,17,7.57s0,0,0-.07H15.78s0,0,0,.07A6.75,6.75,0,0,0,15.83,8.34Z"/><path d="M18.1,27s-2.41,3-1.91,4.53a1.15,1.15,0,0,0,.87.77,6.85,6.85,0,0,1,2.17.85h-10a6.75,6.75,0,0,1,2.16-.85,1.15,1.15,0,0,0,.87-.77C12.75,30,10.36,27,10.34,27,7.42,23.46,6.66,20.86,6.65,8.34H15a7.62,7.62,0,0,1,0-.77s0,0,0-.07H6.23a.42.42,0,0,0-.42.42c0,13.14.78,15.85,3.88,19.61.77.93,2,3,1.76,3.73,0,.09-.08.17-.27.22-3,.76-3.25,1.85-3.26,2.06a.42.42,0,0,0,.42.45H20.11a.42.42,0,0,0,.42-.45c0-.21-.23-1.31-3.26-2.06-.19,0-.25-.13-.27-.22-.25-.76,1-2.8,1.76-3.73,2.42-2.95,3.43-5.25,3.75-12.4a7.6,7.6,0,0,1-.84-.05C21.35,22,20.39,24.22,18.1,27Z"/><path d="M22.51,0a7.58,7.58,0,0,0-7.57,7.5h.84a6.73,6.73,0,1,1,6.75,6.79q0,.43,0,.84h0A7.57,7.57,0,1,0,22.51,0Z"/><path d="M15,8.34h.85a6.75,6.75,0,0,1,0-.77s0,0,0-.07h-.84s0,0,0,.07A7.62,7.62,0,0,0,15,8.34Z"/><path d="M22.51,14.3a6.74,6.74,0,0,1-.81-.05q0,.43,0,.84a7.6,7.6,0,0,0,.84.05q0-.41,0-.84Z"/></svg>