<svg xmlns="http://www.w3.org/2000/svg" viewBox="0 0 43.75 34" fill="currentColor"
     width="35px"
     height="35px">
    <path d="M31.79,19.58H.64a.45.45,0,1,1,0-.9H31.79a.45.45,0,1,1,0,.9Z"/>
    <path d="M26.53,34H6.78a.45.45,0,0,1-.45-.45c0-.65.3-1.8,2.12-2.73A15.74,15.74,0,0,1,0,16.68a.45.45,0,0,1,.45-.45H32.24a.45.45,0,0,1,.45.45A16,16,0,0,1,25,30.74c1.37.79,2,1.69,2,2.81A.45.45,0,0,1,26.53,34ZM7.3,33.1H26c-.15-.54-.64-1.21-2.18-1.93a.45.45,0,0,1-.11-.74l0,0,.09-.06a15,15,0,0,0,7.92-13.2H.9A14.87,14.87,0,0,0,9.42,30.31l.28.1a.45.45,0,0,1,0,.84A3.71,3.71,0,0,0,7.3,33.1Z"/>
    <path d="M11.22,29.32l-.14,0a9.08,9.08,0,0,1-1.88-.9.45.45,0,0,1,.48-.76,8.17,8.17,0,0,0,1.7.82.45.45,0,0,1-.14.87Z"/>
    <path d="M7.77,27.17A.45.45,0,0,1,7.46,27,16,16,0,0,1,4.2,22.65.45.45,0,0,1,5,22.27a15.36,15.36,0,0,0,3.06,4.12.45.45,0,0,1-.31.78Z"/>
    <path d="M10.73,12.75a.45.45,0,0,0,.34-.84A3.07,3.07,0,0,1,10.22,9,4.57,4.57,0,0,1,11,7.71a4.31,4.31,0,0,0,1-2.23,3,3,0,0,0-1.22-2.63.45.45,0,0,0-.51.74,2.11,2.11,0,0,1,.83,1.81,3.49,3.49,0,0,1-.83,1.77,5.35,5.35,0,0,0-.88,1.57C8.93,10.16,9.67,12.32,10.73,12.75Z"/>
    <path d="M16.8,10a.45.45,0,0,0,.34-.84,3.06,3.06,0,0,1-.85-2.89A4.58,4.58,0,0,1,17,4.93a4.31,4.31,0,0,0,1-2.23A3,3,0,0,0,16.81.08a.45.45,0,0,0-.51.74,2.11,2.11,0,0,1,.83,1.81,3.49,3.49,0,0,1-.83,1.77A5.34,5.34,0,0,0,15.43,6C15,7.38,15.74,9.54,16.8,10Z"/>
    <path d="M22.21,12.51a.45.45,0,0,0,.34-.84,3.06,3.06,0,0,1-.85-2.89,4.57,4.57,0,0,1,.74-1.31,4.31,4.31,0,0,0,1-2.23,3,3,0,0,0-1.22-2.63.45.45,0,0,0-.51.74,2.11,2.11,0,0,1,.83,1.81,3.49,3.49,0,0,1-.83,1.77,5.35,5.35,0,0,0-.88,1.57C20.41,9.91,21.16,12.08,22.21,12.51Z"/>
    <path d="M43.65,6.33a.44.44,0,0,0-.63-.1l-12.55,9L40.9,3a.52.52,0,0,0,0-.64.53.53,0,0,0-.64,0L28.44,16.23h2.21L43.55,7A.42.42,0,0,0,43.65,6.33Z"/>
    <polygon points="27.68 17.13 29.41 17.13 30.66 16.23 28.44 16.23 27.68 17.13"/>
</svg>