<svg
        xmlns="http://www.w3.org/2000/svg"
        viewBox="0 0 32.55 30.91"
        fill="currentColor"
        width="35px"
        height="35px">
    <path d="M14.93,22.78a3.51,3.51,0,0,0,3.25-2.19,3.47,3.47,0,0,0,0-2.67,3.52,3.52,0,0,0-4.6-1.86,3.5,3.5,0,0,0-1.87,4.59A3.52,3.52,0,0,0,14.93,22.78ZM12.6,18.35a2.51,2.51,0,0,1,2.32-1.57,2.51,2.51,0,0,1,2.32,1.53,2.5,2.5,0,0,1-1.33,3.28,2.52,2.52,0,0,1-3.29-1.33A2.47,2.47,0,0,1,12.6,18.35Z"/>
    <path d="M11.69,6.12a3,3,0,1,0,0,2.29A3,3,0,0,0,11.69,6.12Zm-2,3A2,2,0,1,1,8.15,5.44a2,2,0,0,1,.78-.16,2,2,0,0,1,.78,3.84Z" />
    <path d="M32.18,7.91,31,7.61h0L14.22,3.36C.32-.15.32-.16.12.09A.5.5,0,0,0,0,.63L12.41,26.56l1.93,4.07a.5.5,0,0,0,.29.26l.16,0a.49.49,0,0,0,.23-.06l.36-.19.71-.38A32.42,32.42,0,0,0,32.26,9.71c.11-.41.2-.81.28-1.2A.5.5,0,0,0,32.18,7.91ZM1.41,1.16,27.56,7.77,28.64,8C25.65,19.5,15.53,25.88,13.7,27Zm29.88,8.3a31.43,31.43,0,0,1-15.67,20l-.6.32-.89-1.87c1.75-1,12.36-7.6,15.48-19.57l1.85.47C31.41,9,31.35,9.22,31.29,9.45Z" />
    <path d="M14.56,13.7h.1a2.39,2.39,0,0,0,1.76-1.45,4,4,0,0,0,.15-4,1.37,1.37,0,0,0-1.13-.59,2.17,2.17,0,0,0-1.65,1.16c-.06.09-.12.19-.17.29a5.12,5.12,0,0,0-.59,2,3,3,0,0,0,.44,2A1.33,1.33,0,0,0,14.56,13.7ZM14,11.2a4.1,4.1,0,0,1,.48-1.58l.12-.21c.33-.51.65-.7.84-.7h0c.05,0,.15,0,.28.18a3.15,3.15,0,0,1-.23,2.89h0c-.35.66-.73.91-.95.92,0,0-.17,0-.31-.18A2,2,0,0,1,14,11.2Z" />
    <path d="M20.82,16.1a.5.5,0,0,0,.48.37h.1l.88-.18a4.08,4.08,0,0,0,1.11-7.17,4.11,4.11,0,0,0-3.1-.73,4.19,4.19,0,0,0-.93.27.5.5,0,0,0-.29.58Zm-.36-6.73a3.09,3.09,0,0,1,3,4.87A3,3,0,0,1,22,15.31l-.36.07-1.5-6Z" />
</svg>