<svg xmlns="http://www.w3.org/2000/svg" viewBox="0 0 200 200" fill="currentColor"
     width="35px"
     height="35px">
    <path d="M196.39,145h-5.64A12.88,12.88,0,0,0,188.11,130l.17-.16a12.87,12.87,0,0,0-.17-18.37l.17-.16a12.87,12.87,0,0,0,2.46-14.76h5.65A3.61,3.61,0,0,0,200,93a74.39,74.39,0,0,0-7.95-33.43,85.94,85.94,0,0,0-21.56-27.13,102.34,102.34,0,0,0-31.75-18.16A114.49,114.49,0,0,0,100,7.63h0a114.49,114.49,0,0,0-38.74,6.63A102.34,102.34,0,0,0,29.51,32.42,85.94,85.94,0,0,0,8,59.55,74.39,74.39,0,0,0,0,93a3.62,3.62,0,0,0,3.61,3.61H9.43a12.88,12.88,0,0,0,2.64,14.91c-.06.06-.12.11-.17.17A12.86,12.86,0,0,0,12.07,130l-.17.16a12.76,12.76,0,0,0-3.77,9.11A12.92,12.92,0,0,0,9.43,145H3.61A3.61,3.61,0,0,0,0,148.56V164a22.4,22.4,0,0,0,22.38,22.37H177.62A22.4,22.4,0,0,0,200,164V148.56A3.61,3.61,0,0,0,196.39,145Zm-11.56-24.18a5.65,5.65,0,0,1-5.66,5.65h-25l9.26-11.3h15.73A5.66,5.66,0,0,1,184.83,120.77ZM100,14.85c49.72,0,90.43,33.1,92.68,74.52H7.32C9.57,48,50.28,14.85,100,14.85ZM15.35,102.24A5.67,5.67,0,0,1,21,96.59H179.2a5.65,5.65,0,0,1,0,11.3H161.38l-.16,0h0l-.16,0h0l-.16,0h0l-.14,0h0l-.13,0h0l-.11.05-.06,0-.09,0-.07,0-.07,0-.09,0-.05,0-.11.06,0,0-.12.08h0l-.13.09h0l-.13.1h0l-.12.11h0l-.12.12,0,0-.1.11-.12.13h0l-20.83,25.41-20.83-25.41h0l-.1-.12L117,109h0l-.39-.34h0l-.13-.09h0l-.12-.08,0,0-.11-.06,0,0-.09,0-.07,0-.08,0-.09,0-.06,0-.11,0h0l-.13,0h0l-.15,0h0l-.16,0h0l-.16,0h0l-.15,0H21A5.66,5.66,0,0,1,15.35,102.24Zm0,18.53A5.65,5.65,0,0,1,21,115.12h91.77l9.26,11.3H21A5.66,5.66,0,0,1,15.35,120.77Zm0,18.53A5.65,5.65,0,0,1,21,133.65H128l7.35,9a3.6,3.6,0,0,0,5.59,0l7.36-9h30.91a5.66,5.66,0,0,1,5.66,5.65,5.67,5.67,0,0,1-5.66,5.65H21A5.66,5.66,0,0,1,15.35,139.3ZM192.77,164a15.17,15.17,0,0,1-15.15,15.15H22.38A15.17,15.17,0,0,1,7.23,164V152.17H192.77Z"/>
    <circle cx="43.95" cy="60.09" r="3.81"/>
    <circle cx="81.83" cy="60.09" r="3.81" transform="translate(-10.96 18.9) rotate(-12.35)"/>
    <circle cx="102.07" cy="48.18" r="3.81"/>
    <circle cx="124.77" cy="59.16" r="3.81"/>
    <circle cx="137.66" cy="40.18" r="3.81"/>
    <circle cx="65.09" cy="79.65" r="3.81"/>
    <circle cx="102.07" cy="79.65" r="3.81"/>
    <circle cx="137.66" cy="79.65" r="3.81"/>
    <circle cx="102.07" cy="24.57" r="3.81"/>
    <circle cx="156.05" cy="56.28" r="3.81"/>
    <circle cx="65.09" cy="42.67" r="3.81" transform="translate(-8.13 16.29) rotate(-13.43)"/>
</svg>