<svg xmlns="http://www.w3.org/2000/svg" viewBox="0 0 31.4 34" fill="currentColor"
     width="35px"
     height="35px">
    <path d="M31.39,1A.4.4,0,0,0,31,.55a.42.42,0,0,0-.46.38L29,15.45,26.91.38A.5.5,0,0,0,26.44,0a.5.5,0,0,0-.38.47L28.6,18.89,27.08,33.53a.42.42,0,0,0,.38.47h0a.45.45,0,0,0,.42-.38l1.18-11.21,1.35,10a.45.45,0,0,0,.42.38h0a.5.5,0,0,0,.38-.47L29.49,18.93Z"/><path d="M17.79,2.68l-.45-.19A22,22,0,0,0,13.77,1.4l-.9-.19A26.48,26.48,0,0,0,8.29.72,14,14,0,0,0,5.48,1c-.33.07-.65.15-1,.24C1.74,2.07,0,3.83,0,6.1s1.75,4,4.52,4.86q.46.14,1,.24a14,14,0,0,0,2.81.28,26.51,26.51,0,0,0,4.6-.5l.88-.18a22,22,0,0,0,3.59-1.09l.45-.19c1.86-.84,3.2-2,3.2-3.42S19.65,3.52,17.79,2.68ZM4.19,9.8C2.21,9.05,1,7.73,1,6.1s1.21-3,3.2-3.71A16.45,16.45,0,0,0,4.19,9.8Zm4.34.67H8.29a12.83,12.83,0,0,1-3-.33,15.59,15.59,0,0,1,0-8.1,12.84,12.84,0,0,1,3-.33H8.6C8.31,3,7.46,7.59,8.53,10.47Zm4-.43a27,27,0,0,1-2.92.38c-1.21-2.67-.19-7.7,0-8.64a27.15,27.15,0,0,1,3,.4C12.31,3.78,11.75,7.43,12.51,10Zm4.21-1.15a22.6,22.6,0,0,1-3.23,1c-.73-2.35-.18-5.9.12-7.45a22.35,22.35,0,0,1,3.13.93A8.35,8.35,0,0,0,16.72,8.88Zm.92-.4a7.45,7.45,0,0,1,0-4.77C19.05,4.39,20,5.19,20,6.1S19,7.82,17.64,8.49Z"/><path d="M14.8,16.15h-8a4.5,4.5,0,0,0-4.5,4.5v8.7a4.5,4.5,0,0,0,4.5,4.5h8a4.5,4.5,0,0,0,4.5-4.5v-8.7A4.5,4.5,0,0,0,14.8,16.15Zm3.5,13.2a3.5,3.5,0,0,1-3.5,3.5h-8a3.5,3.5,0,0,1-3.5-3.5v-8.7a3.5,3.5,0,0,1,3.5-3.5h8a3.5,3.5,0,0,1,3.5,3.5Z"/><path d="M10.8,19.5A5.5,5.5,0,1,0,16.3,25,5.51,5.51,0,0,0,10.8,19.5Zm0,1a4.5,4.5,0,0,1,4.09,2.65H6.71A4.5,4.5,0,0,1,10.8,20.5Zm0,9a4.49,4.49,0,0,1-3.92-2.34h7.85A4.49,4.49,0,0,1,10.8,29.5Zm4.33-3.34H6.47A4.44,4.44,0,0,1,6.3,25a4.5,4.5,0,0,1,.09-.88v0h8.82v0a4.5,4.5,0,0,1,.09.88A4.44,4.44,0,0,1,15.13,26.16Z"/>
</svg>